G04 #@! TF.GenerationSoftware,KiCad,Pcbnew,5.0.2-bee76a0~70~ubuntu16.04.1*
G04 #@! TF.CreationDate,2018-12-16T23:22:02+08:00*
G04 #@! TF.ProjectId,AgriESC,41677269-4553-4432-9e6b-696361645f70,rev?*
G04 #@! TF.SameCoordinates,Original*
G04 #@! TF.FileFunction,Profile,NP*
%FSLAX46Y46*%
G04 Gerber Fmt 4.6, Leading zero omitted, Abs format (unit mm)*
G04 Created by KiCad (PCBNEW 5.0.2-bee76a0~70~ubuntu16.04.1) date Sun 16 Dec 2018 23:22:02 AWST*
%MOMM*%
%LPD*%
G01*
G04 APERTURE LIST*
%ADD10C,0.100000*%
%ADD11C,0.200000*%
G04 APERTURE END LIST*
D10*
X153000000Y-65000000D02*
G75*
G02X154000000Y-66000000I0J-1000000D01*
G01*
X155000000Y-82500000D02*
G75*
G02X154000000Y-81500000I0J1000000D01*
G01*
X165000000Y-81500000D02*
G75*
G02X164000000Y-82500000I-1000000J0D01*
G01*
X165000000Y-66000000D02*
G75*
G02X166000000Y-65000000I1000000J0D01*
G01*
X178000000Y-65000000D02*
G75*
G02X179000000Y-66000000I0J-1000000D01*
G01*
X180000000Y-82500000D02*
G75*
G02X179000000Y-81500000I0J1000000D01*
G01*
X190000000Y-81500000D02*
G75*
G02X189000000Y-82500000I-1000000J0D01*
G01*
X190000000Y-66000000D02*
G75*
G02X191000000Y-65000000I1000000J0D01*
G01*
X193000000Y-94500000D02*
G75*
G02X195000000Y-92500000I2000000J0D01*
G01*
X200000000Y-87500000D02*
G75*
G02X195000000Y-92500000I-5000000J0D01*
G01*
X200000000Y-70000000D02*
X200000000Y-87500000D01*
X195000000Y-65000000D02*
G75*
G02X200000000Y-70000000I0J-5000000D01*
G01*
X195000000Y-127000000D02*
G75*
G02X193000000Y-125000000I0J2000000D01*
G01*
X195000000Y-127000000D02*
G75*
G02X195000000Y-137000000I0J-5000000D01*
G01*
X116000000Y-137000000D02*
G75*
G02X111000000Y-132000000I0J5000000D01*
G01*
D11*
X111000000Y-70000000D02*
G75*
G02X116000000Y-65000000I5000000J0D01*
G01*
D10*
X164000000Y-82500000D02*
X155000000Y-82500000D01*
X191000000Y-65000000D02*
X195000000Y-65000000D01*
X166000000Y-65000000D02*
X178000000Y-65000000D01*
X190000000Y-81500000D02*
X190000000Y-66000000D01*
X180000000Y-82500000D02*
X189000000Y-82500000D01*
X179000000Y-66000000D02*
X179000000Y-81500000D01*
X154000000Y-81500000D02*
X154000000Y-66000000D01*
X165000000Y-66000000D02*
X165000000Y-81500000D01*
D11*
X111000000Y-132000000D02*
X111000000Y-70000000D01*
X195000000Y-137000000D02*
X116000000Y-137000000D01*
X193000000Y-94500000D02*
X193000000Y-125000000D01*
X116000000Y-65000000D02*
X153000000Y-65000000D01*
M02*
