M48
INCH,TZ
T10C0.043
T11C0.012
T12C0.016
T13C0.020
T14C0.022
T15C0.028
T16C0.039
T17C0.047
T18C0.075
T19C0.126
%
T10
X045805Y-33957
X045805Y-41240
X059405Y-41683
X048425Y-32067
X059405Y-35883
X045807Y-46949
T11
X044980Y-47539
X045571Y-37106
X045606Y-34925
X045768Y-45177
X045827Y-37756
X045866Y-42815
X045866Y-44783
X045897Y-34723
X046063Y-31791
X046063Y-41831
X046122Y-43996
X046161Y-40551
X046358Y-38091
X046358Y-45472
X046457Y-39469
X046457Y-43406
X046555Y-31890
X046555Y-32874
X046668Y-37918
X046752Y-40551
X046752Y-41240
X046860Y-39374
X046949Y-34055
X047047Y-42815
X047135Y-39718
X047244Y-47244
X047244Y-49213
X047244Y-53150
X047343Y-34744
X047441Y-42618
X047446Y-39918
X047547Y-41740
X047638Y-26772
X047638Y-28740
X047735Y-36518
X047933Y-34843
X048105Y-40118
X048253Y-32972
X048398Y-40318
X048404Y-43187
X048425Y-44882
X048535Y-36518
X048661Y-47539
X048787Y-38587
X048860Y-36774
X049135Y-36318
X049135Y-39118
X049185Y-41518
X049213Y-53150
X049606Y-26772
X049606Y-28740
X049736Y-36518
X049802Y-44663
X050000Y-34055
X050211Y-38761
X050385Y-43518
X050535Y-35881
X050735Y-36518
X050735Y-40718
X050935Y-34518
X050935Y-36118
X050935Y-46918
X050983Y-36862
X051181Y-51969
X051181Y-53150
X051285Y-40873
X051441Y-38676
X051535Y-37118
X051535Y-51713
X051541Y-41124
X051575Y-26772
X051575Y-28740
X051757Y-42318
X051791Y-37374
X051791Y-39918
X051869Y-38722
X051933Y-50980
X051954Y-41718
X052030Y-37662
X052112Y-42318
X052112Y-42918
X052125Y-38430
X052335Y-51713
X052382Y-37705
X052461Y-39550
X052535Y-34518
X052535Y-35607
X052535Y-36862
X052611Y-38925
X052624Y-42662
X052703Y-38583
X052709Y-42053
X052735Y-39318
X052841Y-42382
X052854Y-52106
X053051Y-34449
X053056Y-38557
X053129Y-41918
X053130Y-50984
X053150Y-53150
X053359Y-38374
X053424Y-42406
X053543Y-26772
X053543Y-28740
X053680Y-42662
X053735Y-38377
X053740Y-50886
X053838Y-39806
X053935Y-37374
X053935Y-42918
X054113Y-40062
X054128Y-34907
X054223Y-37668
X054449Y-50886
X054517Y-37964
X054535Y-38318
X054734Y-51978
X054735Y-43518
X054843Y-38589
X055029Y-36456
X055118Y-53150
X055125Y-38374
X055131Y-39520
X055135Y-36118
X055280Y-47118
X055293Y-36693
X055335Y-41918
X055512Y-26772
X055512Y-28740
X055543Y-36943
X055935Y-36118
X055935Y-48918
X056135Y-39918
X056280Y-40242
X056280Y-42643
X056299Y-35335
X056335Y-47134
X056535Y-49718
X056735Y-34918
X056735Y-39318
X056735Y-45718
X056885Y-39662
X056890Y-33858
X056935Y-38712
X056935Y-48918
X056986Y-39062
X057021Y-33083
X057087Y-53150
X057135Y-39918
X057191Y-42918
X057335Y-49961
X057391Y-42131
X057480Y-26772
X057480Y-28740
X057517Y-31683
X057535Y-41718
X057617Y-40161
X057689Y-40974
X057735Y-46518
X057800Y-44654
X057874Y-33760
X057935Y-37718
X057935Y-38262
X057935Y-47918
X058017Y-34843
X058023Y-40819
X058041Y-47197
X058135Y-37412
X058135Y-44918
X058135Y-46318
X058135Y-48524
X058135Y-49370
X058223Y-38055
X058279Y-40548
X058661Y-36614
X058661Y-48425
X058735Y-43518
X058752Y-50583
X058823Y-49931
X058978Y-48250
X059055Y-53150
X059135Y-47918
X059324Y-41258
X059335Y-42718
X059449Y-26772
X059449Y-28740
X059449Y-35433
X059627Y-36874
X059640Y-50504
X059735Y-36518
X059915Y-35999
X059921Y-35291
X059935Y-50800
X060039Y-47146
X060288Y-48083
X060925Y-37303
X060925Y-37598
X060925Y-37894
X060925Y-38189
X060925Y-38484
X060925Y-38780
X060925Y-39075
X060925Y-39370
X061024Y-53150
X061167Y-47093
X061220Y-37303
X061220Y-37598
X061220Y-37894
X061220Y-38189
X061220Y-38484
X061220Y-38780
X061220Y-39075
X061220Y-39370
X061220Y-44783
X061516Y-37303
X061516Y-37598
X061516Y-37894
X061516Y-38189
X061516Y-38484
X061516Y-38780
X061516Y-39075
X061516Y-39370
X061516Y-46161
X061811Y-37303
X061811Y-37598
X061811Y-37894
X061811Y-38189
X061811Y-38484
X061811Y-38780
X061811Y-39075
X061811Y-39370
X061967Y-46120
X062008Y-43012
X062106Y-37303
X062106Y-37598
X062106Y-37894
X062106Y-38189
X062106Y-38484
X062106Y-38780
X062106Y-39075
X062106Y-39370
X062106Y-48130
X062402Y-37303
X062402Y-37598
X062402Y-37894
X062402Y-38189
X062402Y-38484
X062402Y-38780
X062402Y-39075
X062402Y-39370
X062481Y-41521
X062488Y-48610
X062697Y-37303
X062697Y-37598
X062697Y-37894
X062783Y-48315
X062992Y-34646
X062992Y-34941
X062992Y-35236
X062992Y-35531
X062992Y-35827
X062992Y-36122
X062992Y-36417
X062992Y-36713
X062992Y-37303
X062992Y-37598
X062992Y-37894
X062992Y-51181
X062992Y-53150
X063287Y-34646
X063287Y-34941
X063287Y-35236
X063287Y-35531
X063287Y-35827
X063287Y-36122
X063287Y-36417
X063287Y-36713
X063583Y-34646
X063583Y-34941
X063583Y-37795
X063583Y-38091
X063583Y-40059
X063583Y-40354
X063583Y-40650
X063583Y-40945
X063878Y-34646
X063878Y-34941
X063878Y-37795
X063878Y-38091
X063878Y-40059
X063878Y-40354
X063878Y-40650
X064173Y-34646
X064173Y-34941
X064173Y-37795
X064173Y-38091
X064173Y-40059
X064173Y-40354
X064173Y-40650
X064469Y-34646
X064469Y-34941
X064469Y-37795
X064469Y-38091
X064469Y-40059
X064469Y-40354
X064469Y-40650
X064469Y-42520
X064507Y-41777
X064567Y-49705
X064567Y-50000
X064567Y-50295
X064567Y-50591
X064567Y-50886
X064567Y-51181
X064567Y-51476
X064567Y-51772
X064567Y-52067
X064567Y-52362
X064567Y-52657
X064567Y-52953
X064567Y-53248
X064567Y-53543
X064764Y-34646
X064764Y-34941
X064764Y-37795
X064764Y-38091
X064764Y-40059
X064764Y-40354
X064764Y-40650
X064862Y-49705
X064862Y-50000
X064862Y-50295
X064862Y-50591
X064862Y-50886
X064862Y-51181
X064862Y-51476
X064862Y-51772
X064862Y-52067
X064862Y-52362
X064862Y-52657
X064862Y-52953
X064862Y-53248
X064862Y-53543
X064961Y-41831
X065059Y-34646
X065059Y-34941
X065059Y-38091
X065059Y-40059
X065059Y-40354
X065059Y-40650
X065157Y-49705
X065157Y-50000
X065157Y-50295
X065157Y-50591
X065157Y-50886
X065157Y-51181
X065157Y-51476
X065157Y-51772
X065157Y-52067
X065157Y-52362
X065157Y-52657
X065157Y-52953
X065157Y-53248
X065157Y-53543
X065387Y-41836
X065453Y-49705
X065453Y-50000
X065453Y-50295
X065453Y-50591
X065453Y-50886
X065453Y-51181
X065453Y-51476
X065453Y-51772
X065453Y-52067
X065453Y-52362
X065453Y-52657
X065453Y-52953
X065453Y-53248
X065453Y-53543
X065591Y-42126
X065748Y-49705
X065748Y-50000
X065748Y-50295
X065748Y-50591
X065748Y-50886
X065748Y-51181
X065748Y-51476
X065748Y-51772
X065748Y-52067
X065748Y-52362
X065748Y-52657
X065748Y-52953
X065748Y-53248
X065748Y-53543
X065846Y-37303
X065846Y-37598
X065846Y-37894
X065846Y-38189
X065846Y-38484
X065846Y-38780
X065846Y-39075
X065846Y-39370
X065846Y-42421
X065940Y-46425
X066043Y-49705
X066043Y-50000
X066043Y-50295
X066043Y-50591
X066043Y-50886
X066043Y-51181
X066043Y-51476
X066043Y-51772
X066043Y-52067
X066043Y-52362
X066043Y-52657
X066043Y-52953
X066043Y-53248
X066043Y-53543
X066142Y-37303
X066142Y-37598
X066142Y-37894
X066142Y-38189
X066142Y-38484
X066142Y-38780
X066142Y-39075
X066142Y-39370
X066201Y-45244
X066299Y-46575
X066319Y-46063
X066339Y-49705
X066339Y-50000
X066339Y-50295
X066339Y-50591
X066339Y-50886
X066339Y-51181
X066339Y-51476
X066339Y-51772
X066339Y-52067
X066339Y-52362
X066339Y-52657
X066339Y-52953
X066339Y-53248
X066339Y-53543
X066437Y-37303
X066437Y-37598
X066437Y-37894
X066437Y-38189
X066437Y-38484
X066437Y-38780
X066437Y-39075
X066437Y-39370
X066634Y-49705
X066634Y-50000
X066634Y-50295
X066634Y-50591
X066634Y-50886
X066634Y-51181
X066634Y-51476
X066634Y-51772
X066634Y-52067
X066634Y-52362
X066634Y-52657
X066634Y-52953
X066634Y-53248
X066634Y-53543
X066654Y-46575
X066673Y-46063
X066732Y-37303
X066732Y-37598
X066732Y-37894
X066732Y-38189
X066732Y-38484
X066732Y-38780
X066732Y-39075
X066732Y-39370
X066929Y-43012
X067028Y-37303
X067028Y-37598
X067028Y-37894
X067028Y-38189
X067028Y-38484
X067028Y-38780
X067028Y-39075
X067028Y-39370
X067028Y-46063
X067028Y-47638
X067323Y-37303
X067323Y-37598
X067323Y-37894
X067323Y-38189
X067323Y-38484
X067323Y-38780
X067323Y-39075
X067323Y-39370
X067323Y-49213
X067323Y-51181
X067323Y-53150
X067384Y-46063
X067402Y-41521
X067513Y-48025
X067618Y-37303
X067618Y-37598
X067618Y-37894
X067679Y-47441
X067913Y-34646
X067913Y-34941
X067913Y-35236
X067913Y-35531
X067913Y-35827
X067913Y-36122
X067913Y-36417
X067913Y-36713
X067913Y-37303
X067913Y-37598
X067913Y-37894
X068209Y-34646
X068209Y-34941
X068209Y-35236
X068209Y-35531
X068209Y-35827
X068209Y-36122
X068209Y-36417
X068209Y-36713
X068307Y-49705
X068307Y-50000
X068307Y-50295
X068307Y-50591
X068307Y-50886
X068307Y-51181
X068307Y-51476
X068307Y-51772
X068307Y-52067
X068307Y-52362
X068307Y-52657
X068307Y-52953
X068307Y-53248
X068307Y-53543
X068406Y-41437
X068504Y-34646
X068504Y-34941
X068504Y-37795
X068504Y-38091
X068504Y-40059
X068504Y-40354
X068504Y-40650
X068504Y-40945
X068602Y-49705
X068602Y-50000
X068602Y-50295
X068602Y-50591
X068602Y-50886
X068602Y-51181
X068602Y-51476
X068602Y-51772
X068602Y-52067
X068602Y-52362
X068602Y-52657
X068602Y-52953
X068602Y-53248
X068602Y-53543
X068799Y-34646
X068799Y-34941
X068799Y-37795
X068799Y-38091
X068799Y-40059
X068799Y-40354
X068799Y-40650
X068898Y-42520
X068898Y-49705
X068898Y-50000
X068898Y-50295
X068898Y-50591
X068898Y-50886
X068898Y-51181
X068898Y-51476
X068898Y-51772
X068898Y-52067
X068898Y-52362
X068898Y-52657
X068898Y-52953
X068898Y-53248
X068898Y-53543
X069094Y-34646
X069094Y-34941
X069094Y-37795
X069094Y-38091
X069094Y-40059
X069094Y-40354
X069094Y-40650
X069193Y-49705
X069193Y-50000
X069193Y-50295
X069193Y-50591
X069193Y-50886
X069193Y-51181
X069193Y-51476
X069193Y-51772
X069193Y-52067
X069193Y-52362
X069193Y-52657
X069193Y-52953
X069193Y-53248
X069193Y-53543
X069390Y-34646
X069390Y-34941
X069390Y-37795
X069390Y-38091
X069390Y-40059
X069390Y-40354
X069390Y-40650
X069488Y-49705
X069488Y-50000
X069488Y-50295
X069488Y-50591
X069488Y-50886
X069488Y-51181
X069488Y-51476
X069488Y-51772
X069488Y-52067
X069488Y-52362
X069488Y-52657
X069488Y-52953
X069488Y-53248
X069488Y-53543
X069685Y-34646
X069685Y-34941
X069685Y-37795
X069685Y-38091
X069685Y-40059
X069685Y-40354
X069685Y-40650
X069783Y-49705
X069783Y-50000
X069783Y-50295
X069783Y-50591
X069783Y-50886
X069783Y-51181
X069783Y-51476
X069783Y-51772
X069783Y-52067
X069783Y-52362
X069783Y-52657
X069783Y-52953
X069783Y-53248
X069783Y-53543
X069980Y-34646
X069980Y-34941
X069980Y-38091
X069980Y-40059
X069980Y-40354
X069980Y-40650
X069987Y-41831
X070079Y-49705
X070079Y-50000
X070079Y-50295
X070079Y-50591
X070079Y-50886
X070079Y-51181
X070079Y-51476
X070079Y-51772
X070079Y-52067
X070079Y-52362
X070079Y-52657
X070079Y-52953
X070079Y-53248
X070079Y-53543
X070354Y-41805
X070374Y-49705
X070374Y-50000
X070374Y-50295
X070374Y-50591
X070374Y-50886
X070374Y-51181
X070374Y-51476
X070374Y-51772
X070374Y-52067
X070374Y-52362
X070374Y-52657
X070374Y-52953
X070374Y-53248
X070374Y-53543
X070512Y-42126
X070768Y-37303
X070768Y-37598
X070768Y-37894
X070768Y-38189
X070768Y-38484
X070768Y-38780
X070768Y-39075
X070768Y-39370
X070768Y-42421
X071063Y-37303
X071063Y-37598
X071063Y-37894
X071063Y-38189
X071063Y-38484
X071063Y-38780
X071063Y-39075
X071063Y-39370
X071260Y-49213
X071260Y-51181
X071260Y-53150
X071358Y-37303
X071358Y-37598
X071358Y-37894
X071358Y-38189
X071358Y-38484
X071358Y-38780
X071358Y-39075
X071358Y-39370
X071358Y-46063
X071358Y-46575
X071654Y-37303
X071654Y-37598
X071654Y-37894
X071654Y-38189
X071654Y-38484
X071654Y-38780
X071654Y-39075
X071654Y-39370
X071850Y-43012
X071949Y-37303
X071949Y-37598
X071949Y-37894
X071949Y-38189
X071949Y-38484
X071949Y-38780
X071949Y-39075
X071949Y-39370
X072047Y-46063
X072047Y-46850
X072047Y-49705
X072047Y-50000
X072047Y-50295
X072047Y-50591
X072047Y-50886
X072047Y-51181
X072047Y-51476
X072047Y-51772
X072047Y-52067
X072047Y-52362
X072047Y-52657
X072047Y-52953
X072047Y-53248
X072047Y-53543
X072244Y-37303
X072244Y-37598
X072244Y-37894
X072244Y-38189
X072244Y-38484
X072244Y-38780
X072244Y-39075
X072244Y-39370
X072323Y-41521
X072343Y-49705
X072343Y-50000
X072343Y-50295
X072343Y-50591
X072343Y-50886
X072343Y-51181
X072343Y-51476
X072343Y-51772
X072343Y-52067
X072343Y-52362
X072343Y-52657
X072343Y-52953
X072343Y-53248
X072343Y-53543
X072539Y-37303
X072539Y-37598
X072539Y-37894
X072600Y-46555
X072638Y-49705
X072638Y-50000
X072638Y-50295
X072638Y-50591
X072638Y-50886
X072638Y-51181
X072638Y-51476
X072638Y-51772
X072638Y-52067
X072638Y-52362
X072638Y-52657
X072638Y-52953
X072638Y-53248
X072638Y-53543
X072835Y-34646
X072835Y-34941
X072835Y-35236
X072835Y-35531
X072835Y-35827
X072835Y-36122
X072835Y-36417
X072835Y-36713
X072835Y-37303
X072835Y-37598
X072835Y-37894
X072933Y-49705
X072933Y-50000
X072933Y-50295
X072933Y-50591
X072933Y-50886
X072933Y-51181
X072933Y-51476
X072933Y-51772
X072933Y-52067
X072933Y-52362
X072933Y-52657
X072933Y-52953
X072933Y-53248
X072933Y-53543
X073130Y-34646
X073130Y-34941
X073130Y-35236
X073130Y-35531
X073130Y-35827
X073130Y-36122
X073130Y-36417
X073130Y-36713
X073228Y-49705
X073228Y-50000
X073228Y-50295
X073228Y-50591
X073228Y-50886
X073228Y-51181
X073228Y-51476
X073228Y-51772
X073228Y-52067
X073228Y-52362
X073228Y-52657
X073228Y-52953
X073228Y-53248
X073228Y-53543
X073327Y-41437
X073425Y-34646
X073425Y-34941
X073425Y-37795
X073425Y-38091
X073425Y-40059
X073425Y-40354
X073425Y-40650
X073425Y-40945
X073524Y-49705
X073524Y-50000
X073524Y-50295
X073524Y-50591
X073524Y-50886
X073524Y-51181
X073524Y-51476
X073524Y-51772
X073524Y-52067
X073524Y-52362
X073524Y-52657
X073524Y-52953
X073524Y-53248
X073524Y-53543
X073720Y-34646
X073720Y-34941
X073720Y-37795
X073720Y-38091
X073720Y-40059
X073720Y-40354
X073720Y-40650
X073819Y-49705
X073819Y-50000
X073819Y-50295
X073819Y-50591
X073819Y-50886
X073819Y-51181
X073819Y-51476
X073819Y-51772
X073819Y-52067
X073819Y-52362
X073819Y-52657
X073819Y-52953
X073819Y-53248
X073819Y-53543
X074016Y-34646
X074016Y-34941
X074016Y-37795
X074016Y-38091
X074016Y-40059
X074016Y-40354
X074016Y-40650
X074114Y-49705
X074114Y-50000
X074114Y-50295
X074114Y-50591
X074114Y-50886
X074114Y-51181
X074114Y-51476
X074114Y-51772
X074114Y-52067
X074114Y-52362
X074114Y-52657
X074114Y-52953
X074114Y-53248
X074114Y-53543
X074311Y-34646
X074311Y-34941
X074311Y-37795
X074311Y-38091
X074311Y-40059
X074311Y-40354
X074311Y-40650
X074311Y-42224
X074606Y-34646
X074606Y-34941
X074606Y-37795
X074606Y-38091
X074606Y-40059
X074606Y-40354
X074606Y-40650
X074803Y-51181
X074803Y-53150
X074902Y-34646
X074902Y-34941
X074902Y-38091
X074902Y-40059
X074902Y-40354
X074902Y-40650
X075295Y-41831
X068799Y-35728
X068799Y-36319
X069193Y-35728
X069193Y-36319
X069587Y-35728
X069587Y-36319
X063878Y-38681
X063878Y-39075
X063878Y-39469
X064469Y-38681
X064469Y-39075
X064469Y-39469
X068799Y-38681
X068799Y-39075
X068799Y-39469
X069390Y-38681
X069390Y-39075
X069390Y-39469
X073720Y-38681
X073720Y-39075
X073720Y-39469
X074311Y-38681
X074311Y-39075
X074311Y-39469
X063878Y-35728
X063878Y-36319
X064272Y-35728
X064272Y-36319
X064665Y-35728
X064665Y-36319
X073720Y-35728
X073720Y-36319
X074114Y-35728
X074114Y-36319
X074508Y-35728
X074508Y-36319
T12
X055512Y-33071
X055709Y-30807
X057021Y-31988
X058196Y-31568
X066161Y-30807
X066329Y-30404
X066329Y-31211
X066732Y-30236
X066732Y-31378
X067136Y-30404
X067136Y-31211
X067303Y-30807
X068130Y-30807
X068297Y-30404
X068297Y-31211
X068701Y-30236
X068701Y-31378
X069104Y-30404
X069104Y-31211
X069272Y-30807
T13
X044724Y-27559
X045001Y-26891
X045001Y-28227
X045669Y-26614
X045669Y-28504
X046337Y-26891
X046337Y-28227
X046614Y-27559
X044724Y-51969
X045001Y-51300
X045001Y-52637
X045669Y-51024
X045669Y-52913
X046337Y-51300
X046337Y-52637
X046614Y-51969
X075827Y-51969
X076104Y-51300
X076104Y-52637
X076772Y-51024
X076772Y-52913
X077440Y-51300
X077440Y-52637
X077717Y-51969
X075827Y-27559
X076104Y-26891
X076104Y-28227
X076772Y-26614
X076772Y-28504
X077440Y-26891
X077440Y-28227
X077717Y-27559
X047441Y-52510
X050197Y-52510
T14
X047776Y-51575
X049744Y-51575
T15
X045135Y-31004
X045135Y-31791
X045135Y-32579
X045135Y-33366
X045135Y-35138
X045135Y-35925
X045135Y-36713
X045135Y-37500
X045135Y-38287
X045135Y-39075
X045135Y-39862
X045135Y-40650
X058735Y-37156
X058735Y-37943
X058735Y-38731
X058735Y-39518
X058735Y-40306
X058735Y-41093
X049016Y-31398
X049803Y-31398
X050591Y-31398
X058735Y-32143
X058735Y-32931
X058735Y-33718
X058735Y-34506
X058735Y-35293
X045138Y-42421
X045138Y-43209
X045138Y-43996
X045138Y-44783
X045138Y-45571
X045138Y-46358
T16
X061811Y-33465
X063780Y-33465
X071654Y-33465
X073622Y-33465
T17
X065551Y-26870
X069882Y-26870
T18
X066732Y-30807
X068701Y-30807
T19
X045669Y-27559
X045669Y-51969
X076772Y-51969
X076772Y-27559
M30

