G04 #@! TF.GenerationSoftware,KiCad,Pcbnew,5.1.0-060a0da~80~ubuntu18.04.1*
G04 #@! TF.CreationDate,2019-03-23T20:15:35+08:00*
G04 #@! TF.ProjectId,AgriESC,41677269-4553-4432-9e6b-696361645f70,rev?*
G04 #@! TF.SameCoordinates,Original*
G04 #@! TF.FileFunction,Soldermask,Bot*
G04 #@! TF.FilePolarity,Negative*
%FSLAX46Y46*%
G04 Gerber Fmt 4.6, Leading zero omitted, Abs format (unit mm)*
G04 Created by KiCad (PCBNEW 5.1.0-060a0da~80~ubuntu18.04.1) date 2019-03-23 20:15:35*
%MOMM*%
%LPD*%
G04 APERTURE LIST*
%ADD10C,0.100000*%
G04 APERTURE END LIST*
D10*
G36*
X195933404Y-128922974D02*
G01*
X196515767Y-129164196D01*
X196515768Y-129164197D01*
X197039881Y-129514398D01*
X197485602Y-129960119D01*
X197636710Y-130186268D01*
X197835804Y-130484233D01*
X198077026Y-131066596D01*
X198200000Y-131684826D01*
X198200000Y-132315174D01*
X198077026Y-132933404D01*
X197835804Y-133515767D01*
X197719599Y-133689679D01*
X197485602Y-134039881D01*
X197039881Y-134485602D01*
X196786381Y-134654985D01*
X196515767Y-134835804D01*
X195933404Y-135077026D01*
X195315174Y-135200000D01*
X194684826Y-135200000D01*
X194066596Y-135077026D01*
X193484233Y-134835804D01*
X193213619Y-134654985D01*
X192960119Y-134485602D01*
X192514398Y-134039881D01*
X192280401Y-133689679D01*
X192164196Y-133515767D01*
X191922974Y-132933404D01*
X191800000Y-132315174D01*
X191800000Y-131684826D01*
X191922974Y-131066596D01*
X192164196Y-130484233D01*
X192363290Y-130186268D01*
X192514398Y-129960119D01*
X192960119Y-129514398D01*
X193484232Y-129164197D01*
X193484233Y-129164196D01*
X194066596Y-128922974D01*
X194684826Y-128800000D01*
X195315174Y-128800000D01*
X195933404Y-128922974D01*
X195933404Y-128922974D01*
G37*
G36*
X116933404Y-128922974D02*
G01*
X117515767Y-129164196D01*
X117515768Y-129164197D01*
X118039881Y-129514398D01*
X118485602Y-129960119D01*
X118636710Y-130186268D01*
X118835804Y-130484233D01*
X119077026Y-131066596D01*
X119200000Y-131684826D01*
X119200000Y-132315174D01*
X119077026Y-132933404D01*
X118835804Y-133515767D01*
X118719599Y-133689679D01*
X118485602Y-134039881D01*
X118039881Y-134485602D01*
X117786381Y-134654985D01*
X117515767Y-134835804D01*
X116933404Y-135077026D01*
X116315174Y-135200000D01*
X115684826Y-135200000D01*
X115066596Y-135077026D01*
X114484233Y-134835804D01*
X114213619Y-134654985D01*
X113960119Y-134485602D01*
X113514398Y-134039881D01*
X113280401Y-133689679D01*
X113164196Y-133515767D01*
X112922974Y-132933404D01*
X112800000Y-132315174D01*
X112800000Y-131684826D01*
X112922974Y-131066596D01*
X113164196Y-130484233D01*
X113363290Y-130186268D01*
X113514398Y-129960119D01*
X113960119Y-129514398D01*
X114484232Y-129164197D01*
X114484233Y-129164196D01*
X115066596Y-128922974D01*
X115684826Y-128800000D01*
X116315174Y-128800000D01*
X116933404Y-128922974D01*
X116933404Y-128922974D01*
G37*
G36*
X127733351Y-132930743D02*
G01*
X127878941Y-132991048D01*
X128009970Y-133078599D01*
X128121401Y-133190030D01*
X128208952Y-133321059D01*
X128269257Y-133466649D01*
X128300000Y-133621206D01*
X128300000Y-133778794D01*
X128269257Y-133933351D01*
X128208952Y-134078941D01*
X128121401Y-134209970D01*
X128009970Y-134321401D01*
X127878941Y-134408952D01*
X127733351Y-134469257D01*
X127578794Y-134500000D01*
X127421206Y-134500000D01*
X127266649Y-134469257D01*
X127121059Y-134408952D01*
X126990030Y-134321401D01*
X126878599Y-134209970D01*
X126791048Y-134078941D01*
X126730743Y-133933351D01*
X126700000Y-133778794D01*
X126700000Y-133621206D01*
X126730743Y-133466649D01*
X126791048Y-133321059D01*
X126878599Y-133190030D01*
X126990030Y-133078599D01*
X127121059Y-132991048D01*
X127266649Y-132930743D01*
X127421206Y-132900000D01*
X127578794Y-132900000D01*
X127733351Y-132930743D01*
X127733351Y-132930743D01*
G37*
G36*
X120733351Y-132930743D02*
G01*
X120878941Y-132991048D01*
X121009970Y-133078599D01*
X121121401Y-133190030D01*
X121208952Y-133321059D01*
X121269257Y-133466649D01*
X121300000Y-133621206D01*
X121300000Y-133778794D01*
X121269257Y-133933351D01*
X121208952Y-134078941D01*
X121121401Y-134209970D01*
X121009970Y-134321401D01*
X120878941Y-134408952D01*
X120733351Y-134469257D01*
X120578794Y-134500000D01*
X120421206Y-134500000D01*
X120266649Y-134469257D01*
X120121059Y-134408952D01*
X119990030Y-134321401D01*
X119878599Y-134209970D01*
X119791048Y-134078941D01*
X119730743Y-133933351D01*
X119700000Y-133778794D01*
X119700000Y-133621206D01*
X119730743Y-133466649D01*
X119791048Y-133321059D01*
X119878599Y-133190030D01*
X119990030Y-133078599D01*
X120121059Y-132991048D01*
X120266649Y-132930743D01*
X120421206Y-132900000D01*
X120578794Y-132900000D01*
X120733351Y-132930743D01*
X120733351Y-132930743D01*
G37*
G36*
X121682306Y-130399018D02*
G01*
X121796047Y-130446131D01*
X121898413Y-130514530D01*
X121985470Y-130601587D01*
X122053869Y-130703953D01*
X122100982Y-130817694D01*
X122125000Y-130938442D01*
X122125000Y-131061558D01*
X122100982Y-131182306D01*
X122053869Y-131296047D01*
X121985470Y-131398413D01*
X121898413Y-131485470D01*
X121796047Y-131553869D01*
X121682306Y-131600982D01*
X121561558Y-131625000D01*
X121438442Y-131625000D01*
X121317694Y-131600982D01*
X121203953Y-131553869D01*
X121101587Y-131485470D01*
X121014530Y-131398413D01*
X120946131Y-131296047D01*
X120899018Y-131182306D01*
X120875000Y-131061558D01*
X120875000Y-130938442D01*
X120899018Y-130817694D01*
X120946131Y-130703953D01*
X121014530Y-130601587D01*
X121101587Y-130514530D01*
X121203953Y-130446131D01*
X121317694Y-130399018D01*
X121438442Y-130375000D01*
X121561558Y-130375000D01*
X121682306Y-130399018D01*
X121682306Y-130399018D01*
G37*
G36*
X126682306Y-130399018D02*
G01*
X126796047Y-130446131D01*
X126898413Y-130514530D01*
X126985470Y-130601587D01*
X127053869Y-130703953D01*
X127100982Y-130817694D01*
X127125000Y-130938442D01*
X127125000Y-131061558D01*
X127100982Y-131182306D01*
X127053869Y-131296047D01*
X126985470Y-131398413D01*
X126898413Y-131485470D01*
X126796047Y-131553869D01*
X126682306Y-131600982D01*
X126561558Y-131625000D01*
X126438442Y-131625000D01*
X126317694Y-131600982D01*
X126203953Y-131553869D01*
X126101587Y-131485470D01*
X126014530Y-131398413D01*
X125946131Y-131296047D01*
X125899018Y-131182306D01*
X125875000Y-131061558D01*
X125875000Y-130938442D01*
X125899018Y-130817694D01*
X125946131Y-130703953D01*
X126014530Y-130601587D01*
X126101587Y-130514530D01*
X126203953Y-130446131D01*
X126317694Y-130399018D01*
X126438442Y-130375000D01*
X126561558Y-130375000D01*
X126682306Y-130399018D01*
X126682306Y-130399018D01*
G37*
G36*
X116475009Y-118714091D02*
G01*
X116510429Y-118721136D01*
X116560476Y-118741867D01*
X116610524Y-118762597D01*
X116700602Y-118822785D01*
X116777215Y-118899398D01*
X116837403Y-118989476D01*
X116878864Y-119089572D01*
X116900000Y-119195828D01*
X116900000Y-119304172D01*
X116878864Y-119410428D01*
X116837403Y-119510524D01*
X116777215Y-119600602D01*
X116700602Y-119677215D01*
X116610524Y-119737403D01*
X116560476Y-119758134D01*
X116510429Y-119778864D01*
X116475009Y-119785909D01*
X116404172Y-119800000D01*
X116295828Y-119800000D01*
X116224991Y-119785909D01*
X116189571Y-119778864D01*
X116139524Y-119758134D01*
X116089476Y-119737403D01*
X115999398Y-119677215D01*
X115922785Y-119600602D01*
X115862597Y-119510524D01*
X115821136Y-119410428D01*
X115800000Y-119304172D01*
X115800000Y-119195828D01*
X115821136Y-119089572D01*
X115862597Y-118989476D01*
X115922785Y-118899398D01*
X115999398Y-118822785D01*
X116089476Y-118762597D01*
X116139524Y-118741867D01*
X116189571Y-118721136D01*
X116224991Y-118714091D01*
X116295828Y-118700000D01*
X116404172Y-118700000D01*
X116475009Y-118714091D01*
X116475009Y-118714091D01*
G37*
G36*
X114823195Y-117007522D02*
G01*
X114872267Y-117017283D01*
X115010942Y-117074724D01*
X115135747Y-117158116D01*
X115241884Y-117264253D01*
X115325276Y-117389058D01*
X115382717Y-117527733D01*
X115412000Y-117674950D01*
X115412000Y-117825050D01*
X115382717Y-117972267D01*
X115325276Y-118110942D01*
X115241884Y-118235747D01*
X115135747Y-118341884D01*
X115010942Y-118425276D01*
X114872267Y-118482717D01*
X114823195Y-118492478D01*
X114725052Y-118512000D01*
X114574948Y-118512000D01*
X114476805Y-118492478D01*
X114427733Y-118482717D01*
X114289058Y-118425276D01*
X114164253Y-118341884D01*
X114058116Y-118235747D01*
X113974724Y-118110942D01*
X113917283Y-117972267D01*
X113888000Y-117825050D01*
X113888000Y-117674950D01*
X113917283Y-117527733D01*
X113974724Y-117389058D01*
X114058116Y-117264253D01*
X114164253Y-117158116D01*
X114289058Y-117074724D01*
X114427733Y-117017283D01*
X114476805Y-117007522D01*
X114574948Y-116988000D01*
X114725052Y-116988000D01*
X114823195Y-117007522D01*
X114823195Y-117007522D01*
G37*
G36*
X114823195Y-115007522D02*
G01*
X114872267Y-115017283D01*
X115010942Y-115074724D01*
X115135747Y-115158116D01*
X115241884Y-115264253D01*
X115325276Y-115389058D01*
X115382717Y-115527733D01*
X115412000Y-115674950D01*
X115412000Y-115825050D01*
X115382717Y-115972267D01*
X115325276Y-116110942D01*
X115241884Y-116235747D01*
X115135747Y-116341884D01*
X115010942Y-116425276D01*
X114872267Y-116482717D01*
X114823195Y-116492478D01*
X114725052Y-116512000D01*
X114574948Y-116512000D01*
X114476805Y-116492478D01*
X114427733Y-116482717D01*
X114289058Y-116425276D01*
X114164253Y-116341884D01*
X114058116Y-116235747D01*
X113974724Y-116110942D01*
X113917283Y-115972267D01*
X113888000Y-115825050D01*
X113888000Y-115674950D01*
X113917283Y-115527733D01*
X113974724Y-115389058D01*
X114058116Y-115264253D01*
X114164253Y-115158116D01*
X114289058Y-115074724D01*
X114427733Y-115017283D01*
X114476805Y-115007522D01*
X114574948Y-114988000D01*
X114725052Y-114988000D01*
X114823195Y-115007522D01*
X114823195Y-115007522D01*
G37*
G36*
X114823195Y-113007522D02*
G01*
X114872267Y-113017283D01*
X115010942Y-113074724D01*
X115135747Y-113158116D01*
X115241884Y-113264253D01*
X115325276Y-113389058D01*
X115382717Y-113527733D01*
X115412000Y-113674950D01*
X115412000Y-113825050D01*
X115382717Y-113972267D01*
X115325276Y-114110942D01*
X115241884Y-114235747D01*
X115135747Y-114341884D01*
X115010942Y-114425276D01*
X114872267Y-114482717D01*
X114823195Y-114492478D01*
X114725052Y-114512000D01*
X114574948Y-114512000D01*
X114476805Y-114492478D01*
X114427733Y-114482717D01*
X114289058Y-114425276D01*
X114164253Y-114341884D01*
X114058116Y-114235747D01*
X113974724Y-114110942D01*
X113917283Y-113972267D01*
X113888000Y-113825050D01*
X113888000Y-113674950D01*
X113917283Y-113527733D01*
X113974724Y-113389058D01*
X114058116Y-113264253D01*
X114164253Y-113158116D01*
X114289058Y-113074724D01*
X114427733Y-113017283D01*
X114476805Y-113007522D01*
X114574948Y-112988000D01*
X114725052Y-112988000D01*
X114823195Y-113007522D01*
X114823195Y-113007522D01*
G37*
G36*
X114823195Y-111007522D02*
G01*
X114872267Y-111017283D01*
X115010942Y-111074724D01*
X115135747Y-111158116D01*
X115241884Y-111264253D01*
X115325276Y-111389058D01*
X115382717Y-111527733D01*
X115412000Y-111674950D01*
X115412000Y-111825050D01*
X115382717Y-111972267D01*
X115325276Y-112110942D01*
X115241884Y-112235747D01*
X115135747Y-112341884D01*
X115010942Y-112425276D01*
X114872267Y-112482717D01*
X114823195Y-112492478D01*
X114725052Y-112512000D01*
X114574948Y-112512000D01*
X114476805Y-112492478D01*
X114427733Y-112482717D01*
X114289058Y-112425276D01*
X114164253Y-112341884D01*
X114058116Y-112235747D01*
X113974724Y-112110942D01*
X113917283Y-111972267D01*
X113888000Y-111825050D01*
X113888000Y-111674950D01*
X113917283Y-111527733D01*
X113974724Y-111389058D01*
X114058116Y-111264253D01*
X114164253Y-111158116D01*
X114289058Y-111074724D01*
X114427733Y-111017283D01*
X114476805Y-111007522D01*
X114574948Y-110988000D01*
X114725052Y-110988000D01*
X114823195Y-111007522D01*
X114823195Y-111007522D01*
G37*
G36*
X114823195Y-109007522D02*
G01*
X114872267Y-109017283D01*
X115010942Y-109074724D01*
X115135747Y-109158116D01*
X115241884Y-109264253D01*
X115325276Y-109389058D01*
X115382717Y-109527733D01*
X115412000Y-109674950D01*
X115412000Y-109825050D01*
X115382717Y-109972267D01*
X115325276Y-110110942D01*
X115241884Y-110235747D01*
X115135747Y-110341884D01*
X115010942Y-110425276D01*
X114872267Y-110482717D01*
X114823195Y-110492478D01*
X114725052Y-110512000D01*
X114574948Y-110512000D01*
X114476805Y-110492478D01*
X114427733Y-110482717D01*
X114289058Y-110425276D01*
X114164253Y-110341884D01*
X114058116Y-110235747D01*
X113974724Y-110110942D01*
X113917283Y-109972267D01*
X113888000Y-109825050D01*
X113888000Y-109674950D01*
X113917283Y-109527733D01*
X113974724Y-109389058D01*
X114058116Y-109264253D01*
X114164253Y-109158116D01*
X114289058Y-109074724D01*
X114427733Y-109017283D01*
X114476805Y-109007522D01*
X114574948Y-108988000D01*
X114725052Y-108988000D01*
X114823195Y-109007522D01*
X114823195Y-109007522D01*
G37*
G36*
X114823195Y-107007522D02*
G01*
X114872267Y-107017283D01*
X115010942Y-107074724D01*
X115135747Y-107158116D01*
X115241884Y-107264253D01*
X115325276Y-107389058D01*
X115382717Y-107527733D01*
X115412000Y-107674950D01*
X115412000Y-107825050D01*
X115382717Y-107972267D01*
X115325276Y-108110942D01*
X115241884Y-108235747D01*
X115135747Y-108341884D01*
X115010942Y-108425276D01*
X114872267Y-108482717D01*
X114823195Y-108492478D01*
X114725052Y-108512000D01*
X114574948Y-108512000D01*
X114476805Y-108492478D01*
X114427733Y-108482717D01*
X114289058Y-108425276D01*
X114164253Y-108341884D01*
X114058116Y-108235747D01*
X113974724Y-108110942D01*
X113917283Y-107972267D01*
X113888000Y-107825050D01*
X113888000Y-107674950D01*
X113917283Y-107527733D01*
X113974724Y-107389058D01*
X114058116Y-107264253D01*
X114164253Y-107158116D01*
X114289058Y-107074724D01*
X114427733Y-107017283D01*
X114476805Y-107007522D01*
X114574948Y-106988000D01*
X114725052Y-106988000D01*
X114823195Y-107007522D01*
X114823195Y-107007522D01*
G37*
G36*
X151013009Y-105340091D02*
G01*
X151048429Y-105347136D01*
X151098476Y-105367867D01*
X151148524Y-105388597D01*
X151238602Y-105448785D01*
X151315215Y-105525398D01*
X151375403Y-105615476D01*
X151416864Y-105715572D01*
X151438000Y-105821828D01*
X151438000Y-105930172D01*
X151416864Y-106036428D01*
X151375403Y-106136524D01*
X151315215Y-106226602D01*
X151238602Y-106303215D01*
X151148524Y-106363403D01*
X151098476Y-106384134D01*
X151048429Y-106404864D01*
X151013009Y-106411909D01*
X150942172Y-106426000D01*
X150833828Y-106426000D01*
X150762991Y-106411909D01*
X150727571Y-106404864D01*
X150677524Y-106384134D01*
X150627476Y-106363403D01*
X150537398Y-106303215D01*
X150460785Y-106226602D01*
X150400597Y-106136524D01*
X150359136Y-106036428D01*
X150338000Y-105930172D01*
X150338000Y-105821828D01*
X150359136Y-105715572D01*
X150400597Y-105615476D01*
X150460785Y-105525398D01*
X150537398Y-105448785D01*
X150627476Y-105388597D01*
X150677524Y-105367867D01*
X150727571Y-105347136D01*
X150762991Y-105340091D01*
X150833828Y-105326000D01*
X150942172Y-105326000D01*
X151013009Y-105340091D01*
X151013009Y-105340091D01*
G37*
G36*
X116469009Y-104214091D02*
G01*
X116504429Y-104221136D01*
X116554476Y-104241866D01*
X116604524Y-104262597D01*
X116694602Y-104322785D01*
X116771215Y-104399398D01*
X116831403Y-104489476D01*
X116831403Y-104489477D01*
X116872864Y-104589571D01*
X116874594Y-104598267D01*
X116894000Y-104695828D01*
X116894000Y-104804172D01*
X116872864Y-104910428D01*
X116831403Y-105010524D01*
X116771215Y-105100602D01*
X116694602Y-105177215D01*
X116604524Y-105237403D01*
X116554476Y-105258133D01*
X116504429Y-105278864D01*
X116469009Y-105285909D01*
X116398172Y-105300000D01*
X116289828Y-105300000D01*
X116218991Y-105285909D01*
X116183571Y-105278864D01*
X116133524Y-105258133D01*
X116083476Y-105237403D01*
X115993398Y-105177215D01*
X115916785Y-105100602D01*
X115856597Y-105010524D01*
X115815136Y-104910428D01*
X115794000Y-104804172D01*
X115794000Y-104695828D01*
X115813406Y-104598267D01*
X115815136Y-104589571D01*
X115856597Y-104489477D01*
X115856597Y-104489476D01*
X115916785Y-104399398D01*
X115993398Y-104322785D01*
X116083476Y-104262597D01*
X116133524Y-104241866D01*
X116183571Y-104221136D01*
X116218991Y-104214091D01*
X116289828Y-104200000D01*
X116398172Y-104200000D01*
X116469009Y-104214091D01*
X116469009Y-104214091D01*
G37*
G36*
X149361195Y-103633522D02*
G01*
X149410267Y-103643283D01*
X149548942Y-103700724D01*
X149673747Y-103784116D01*
X149779884Y-103890253D01*
X149863276Y-104015058D01*
X149863276Y-104015059D01*
X149920717Y-104153734D01*
X149950000Y-104300948D01*
X149950000Y-104451052D01*
X149930478Y-104549195D01*
X149920717Y-104598267D01*
X149863276Y-104736942D01*
X149779884Y-104861747D01*
X149673747Y-104967884D01*
X149548942Y-105051276D01*
X149410267Y-105108717D01*
X149361195Y-105118478D01*
X149263052Y-105138000D01*
X149112948Y-105138000D01*
X149014805Y-105118478D01*
X148965733Y-105108717D01*
X148827058Y-105051276D01*
X148702253Y-104967884D01*
X148596116Y-104861747D01*
X148512724Y-104736942D01*
X148455283Y-104598267D01*
X148445522Y-104549195D01*
X148426000Y-104451052D01*
X148426000Y-104300948D01*
X148455283Y-104153734D01*
X148512724Y-104015059D01*
X148512724Y-104015058D01*
X148596116Y-103890253D01*
X148702253Y-103784116D01*
X148827058Y-103700724D01*
X148965733Y-103643283D01*
X149014805Y-103633522D01*
X149112948Y-103614000D01*
X149263052Y-103614000D01*
X149361195Y-103633522D01*
X149361195Y-103633522D01*
G37*
G36*
X114817195Y-102507522D02*
G01*
X114866267Y-102517283D01*
X115004942Y-102574724D01*
X115129747Y-102658116D01*
X115235884Y-102764253D01*
X115319276Y-102889058D01*
X115376717Y-103027733D01*
X115376717Y-103027734D01*
X115398651Y-103138000D01*
X115406000Y-103174950D01*
X115406000Y-103325050D01*
X115376717Y-103472267D01*
X115319276Y-103610942D01*
X115235884Y-103735747D01*
X115129747Y-103841884D01*
X115004942Y-103925276D01*
X114866267Y-103982717D01*
X114817195Y-103992478D01*
X114719052Y-104012000D01*
X114568948Y-104012000D01*
X114470805Y-103992478D01*
X114421733Y-103982717D01*
X114283058Y-103925276D01*
X114158253Y-103841884D01*
X114052116Y-103735747D01*
X113968724Y-103610942D01*
X113911283Y-103472267D01*
X113882000Y-103325050D01*
X113882000Y-103174950D01*
X113889350Y-103138000D01*
X113911283Y-103027734D01*
X113911283Y-103027733D01*
X113968724Y-102889058D01*
X114052116Y-102764253D01*
X114158253Y-102658116D01*
X114283058Y-102574724D01*
X114421733Y-102517283D01*
X114470805Y-102507522D01*
X114568948Y-102488000D01*
X114719052Y-102488000D01*
X114817195Y-102507522D01*
X114817195Y-102507522D01*
G37*
G36*
X149361195Y-101633522D02*
G01*
X149410267Y-101643283D01*
X149548942Y-101700724D01*
X149673747Y-101784116D01*
X149779884Y-101890253D01*
X149863276Y-102015058D01*
X149863276Y-102015059D01*
X149920717Y-102153734D01*
X149950000Y-102300948D01*
X149950000Y-102451052D01*
X149936826Y-102517283D01*
X149920717Y-102598267D01*
X149863276Y-102736942D01*
X149779884Y-102861747D01*
X149673747Y-102967884D01*
X149548942Y-103051276D01*
X149410267Y-103108717D01*
X149361195Y-103118478D01*
X149263052Y-103138000D01*
X149112948Y-103138000D01*
X149014805Y-103118478D01*
X148965733Y-103108717D01*
X148827058Y-103051276D01*
X148702253Y-102967884D01*
X148596116Y-102861747D01*
X148512724Y-102736942D01*
X148455283Y-102598267D01*
X148439174Y-102517283D01*
X148426000Y-102451052D01*
X148426000Y-102300948D01*
X148455283Y-102153734D01*
X148512724Y-102015059D01*
X148512724Y-102015058D01*
X148596116Y-101890253D01*
X148702253Y-101784116D01*
X148827058Y-101700724D01*
X148965733Y-101643283D01*
X149014805Y-101633522D01*
X149112948Y-101614000D01*
X149263052Y-101614000D01*
X149361195Y-101633522D01*
X149361195Y-101633522D01*
G37*
G36*
X114817195Y-100507522D02*
G01*
X114866267Y-100517283D01*
X115004942Y-100574724D01*
X115129747Y-100658116D01*
X115235884Y-100764253D01*
X115319276Y-100889058D01*
X115376717Y-101027733D01*
X115376717Y-101027734D01*
X115398651Y-101138000D01*
X115406000Y-101174950D01*
X115406000Y-101325050D01*
X115376717Y-101472267D01*
X115319276Y-101610942D01*
X115235884Y-101735747D01*
X115129747Y-101841884D01*
X115004942Y-101925276D01*
X114866267Y-101982717D01*
X114817195Y-101992478D01*
X114719052Y-102012000D01*
X114568948Y-102012000D01*
X114470805Y-101992478D01*
X114421733Y-101982717D01*
X114283058Y-101925276D01*
X114158253Y-101841884D01*
X114052116Y-101735747D01*
X113968724Y-101610942D01*
X113911283Y-101472267D01*
X113882000Y-101325050D01*
X113882000Y-101174950D01*
X113889350Y-101138000D01*
X113911283Y-101027734D01*
X113911283Y-101027733D01*
X113968724Y-100889058D01*
X114052116Y-100764253D01*
X114158253Y-100658116D01*
X114283058Y-100574724D01*
X114421733Y-100517283D01*
X114470805Y-100507522D01*
X114568948Y-100488000D01*
X114719052Y-100488000D01*
X114817195Y-100507522D01*
X114817195Y-100507522D01*
G37*
G36*
X149361195Y-99633522D02*
G01*
X149410267Y-99643283D01*
X149548942Y-99700724D01*
X149673747Y-99784116D01*
X149779884Y-99890253D01*
X149863276Y-100015058D01*
X149901731Y-100107897D01*
X149920717Y-100153734D01*
X149950000Y-100300948D01*
X149950000Y-100451052D01*
X149937109Y-100515857D01*
X149920717Y-100598267D01*
X149863276Y-100736942D01*
X149779884Y-100861747D01*
X149673747Y-100967884D01*
X149548942Y-101051276D01*
X149410267Y-101108717D01*
X149361195Y-101118478D01*
X149263052Y-101138000D01*
X149112948Y-101138000D01*
X149014805Y-101118478D01*
X148965733Y-101108717D01*
X148827058Y-101051276D01*
X148702253Y-100967884D01*
X148596116Y-100861747D01*
X148512724Y-100736942D01*
X148455283Y-100598267D01*
X148438891Y-100515857D01*
X148426000Y-100451052D01*
X148426000Y-100300948D01*
X148455283Y-100153734D01*
X148474269Y-100107897D01*
X148512724Y-100015058D01*
X148596116Y-99890253D01*
X148702253Y-99784116D01*
X148827058Y-99700724D01*
X148965733Y-99643283D01*
X149014805Y-99633522D01*
X149112948Y-99614000D01*
X149263052Y-99614000D01*
X149361195Y-99633522D01*
X149361195Y-99633522D01*
G37*
G36*
X163837507Y-99961528D02*
G01*
X163892103Y-99984143D01*
X163941239Y-100016974D01*
X163983026Y-100058761D01*
X164015857Y-100107897D01*
X164038472Y-100162493D01*
X164050000Y-100220453D01*
X164050000Y-100279547D01*
X164038472Y-100337507D01*
X164015857Y-100392103D01*
X163983026Y-100441239D01*
X163941239Y-100483026D01*
X163892103Y-100515857D01*
X163837507Y-100538472D01*
X163779547Y-100550000D01*
X163720453Y-100550000D01*
X163662493Y-100538472D01*
X163607897Y-100515857D01*
X163558761Y-100483026D01*
X163516974Y-100441239D01*
X163484143Y-100392103D01*
X163461528Y-100337507D01*
X163450000Y-100279547D01*
X163450000Y-100220453D01*
X163461528Y-100162493D01*
X163484143Y-100107897D01*
X163516974Y-100058761D01*
X163558761Y-100016974D01*
X163607897Y-99984143D01*
X163662493Y-99961528D01*
X163720453Y-99950000D01*
X163779547Y-99950000D01*
X163837507Y-99961528D01*
X163837507Y-99961528D01*
G37*
G36*
X162337507Y-99961528D02*
G01*
X162392103Y-99984143D01*
X162441239Y-100016974D01*
X162483026Y-100058761D01*
X162515857Y-100107897D01*
X162538472Y-100162493D01*
X162550000Y-100220453D01*
X162550000Y-100279547D01*
X162538472Y-100337507D01*
X162515857Y-100392103D01*
X162483026Y-100441239D01*
X162441239Y-100483026D01*
X162392103Y-100515857D01*
X162337507Y-100538472D01*
X162279547Y-100550000D01*
X162220453Y-100550000D01*
X162162493Y-100538472D01*
X162107897Y-100515857D01*
X162058761Y-100483026D01*
X162016974Y-100441239D01*
X161984143Y-100392103D01*
X161961528Y-100337507D01*
X161950000Y-100279547D01*
X161950000Y-100220453D01*
X161961528Y-100162493D01*
X161984143Y-100107897D01*
X162016974Y-100058761D01*
X162058761Y-100016974D01*
X162107897Y-99984143D01*
X162162493Y-99961528D01*
X162220453Y-99950000D01*
X162279547Y-99950000D01*
X162337507Y-99961528D01*
X162337507Y-99961528D01*
G37*
G36*
X174837507Y-99961528D02*
G01*
X174892103Y-99984143D01*
X174941239Y-100016974D01*
X174983026Y-100058761D01*
X175015857Y-100107897D01*
X175038472Y-100162493D01*
X175050000Y-100220453D01*
X175050000Y-100279547D01*
X175038472Y-100337507D01*
X175015857Y-100392103D01*
X174983026Y-100441239D01*
X174941239Y-100483026D01*
X174892103Y-100515857D01*
X174837507Y-100538472D01*
X174779547Y-100550000D01*
X174720453Y-100550000D01*
X174662493Y-100538472D01*
X174607897Y-100515857D01*
X174558761Y-100483026D01*
X174516974Y-100441239D01*
X174484143Y-100392103D01*
X174461528Y-100337507D01*
X174450000Y-100279547D01*
X174450000Y-100220453D01*
X174461528Y-100162493D01*
X174484143Y-100107897D01*
X174516974Y-100058761D01*
X174558761Y-100016974D01*
X174607897Y-99984143D01*
X174662493Y-99961528D01*
X174720453Y-99950000D01*
X174779547Y-99950000D01*
X174837507Y-99961528D01*
X174837507Y-99961528D01*
G37*
G36*
X188837507Y-99961528D02*
G01*
X188892103Y-99984143D01*
X188941239Y-100016974D01*
X188983026Y-100058761D01*
X189015857Y-100107897D01*
X189038472Y-100162493D01*
X189050000Y-100220453D01*
X189050000Y-100279547D01*
X189038472Y-100337507D01*
X189015857Y-100392103D01*
X188983026Y-100441239D01*
X188941239Y-100483026D01*
X188892103Y-100515857D01*
X188837507Y-100538472D01*
X188779547Y-100550000D01*
X188720453Y-100550000D01*
X188662493Y-100538472D01*
X188607897Y-100515857D01*
X188558761Y-100483026D01*
X188516974Y-100441239D01*
X188484143Y-100392103D01*
X188461528Y-100337507D01*
X188450000Y-100279547D01*
X188450000Y-100220453D01*
X188461528Y-100162493D01*
X188484143Y-100107897D01*
X188516974Y-100058761D01*
X188558761Y-100016974D01*
X188607897Y-99984143D01*
X188662493Y-99961528D01*
X188720453Y-99950000D01*
X188779547Y-99950000D01*
X188837507Y-99961528D01*
X188837507Y-99961528D01*
G37*
G36*
X187337507Y-99961528D02*
G01*
X187392103Y-99984143D01*
X187441239Y-100016974D01*
X187483026Y-100058761D01*
X187515857Y-100107897D01*
X187538472Y-100162493D01*
X187550000Y-100220453D01*
X187550000Y-100279547D01*
X187538472Y-100337507D01*
X187515857Y-100392103D01*
X187483026Y-100441239D01*
X187441239Y-100483026D01*
X187392103Y-100515857D01*
X187337507Y-100538472D01*
X187279547Y-100550000D01*
X187220453Y-100550000D01*
X187162493Y-100538472D01*
X187107897Y-100515857D01*
X187058761Y-100483026D01*
X187016974Y-100441239D01*
X186984143Y-100392103D01*
X186961528Y-100337507D01*
X186950000Y-100279547D01*
X186950000Y-100220453D01*
X186961528Y-100162493D01*
X186984143Y-100107897D01*
X187016974Y-100058761D01*
X187058761Y-100016974D01*
X187107897Y-99984143D01*
X187162493Y-99961528D01*
X187220453Y-99950000D01*
X187279547Y-99950000D01*
X187337507Y-99961528D01*
X187337507Y-99961528D01*
G37*
G36*
X176337507Y-99961528D02*
G01*
X176392103Y-99984143D01*
X176441239Y-100016974D01*
X176483026Y-100058761D01*
X176515857Y-100107897D01*
X176538472Y-100162493D01*
X176550000Y-100220453D01*
X176550000Y-100279547D01*
X176538472Y-100337507D01*
X176515857Y-100392103D01*
X176483026Y-100441239D01*
X176441239Y-100483026D01*
X176392103Y-100515857D01*
X176337507Y-100538472D01*
X176279547Y-100550000D01*
X176220453Y-100550000D01*
X176162493Y-100538472D01*
X176107897Y-100515857D01*
X176058761Y-100483026D01*
X176016974Y-100441239D01*
X175984143Y-100392103D01*
X175961528Y-100337507D01*
X175950000Y-100279547D01*
X175950000Y-100220453D01*
X175961528Y-100162493D01*
X175984143Y-100107897D01*
X176016974Y-100058761D01*
X176058761Y-100016974D01*
X176107897Y-99984143D01*
X176162493Y-99961528D01*
X176220453Y-99950000D01*
X176279547Y-99950000D01*
X176337507Y-99961528D01*
X176337507Y-99961528D01*
G37*
G36*
X114817195Y-98507522D02*
G01*
X114866267Y-98517283D01*
X115004942Y-98574724D01*
X115129747Y-98658116D01*
X115235884Y-98764253D01*
X115319276Y-98889058D01*
X115372260Y-99016973D01*
X115376717Y-99027734D01*
X115406000Y-99174948D01*
X115406000Y-99325052D01*
X115392662Y-99392104D01*
X115376717Y-99472267D01*
X115319276Y-99610942D01*
X115235884Y-99735747D01*
X115129747Y-99841884D01*
X115004942Y-99925276D01*
X114866267Y-99982717D01*
X114817195Y-99992478D01*
X114719052Y-100012000D01*
X114568948Y-100012000D01*
X114470805Y-99992478D01*
X114421733Y-99982717D01*
X114283058Y-99925276D01*
X114158253Y-99841884D01*
X114052116Y-99735747D01*
X113968724Y-99610942D01*
X113911283Y-99472267D01*
X113895338Y-99392104D01*
X113882000Y-99325052D01*
X113882000Y-99174948D01*
X113911283Y-99027734D01*
X113915740Y-99016973D01*
X113968724Y-98889058D01*
X114052116Y-98764253D01*
X114158253Y-98658116D01*
X114283058Y-98574724D01*
X114421733Y-98517283D01*
X114470805Y-98507522D01*
X114568948Y-98488000D01*
X114719052Y-98488000D01*
X114817195Y-98507522D01*
X114817195Y-98507522D01*
G37*
G36*
X162337507Y-98961528D02*
G01*
X162392103Y-98984143D01*
X162441239Y-99016974D01*
X162483026Y-99058761D01*
X162515857Y-99107897D01*
X162538472Y-99162493D01*
X162550000Y-99220453D01*
X162550000Y-99279547D01*
X162538472Y-99337507D01*
X162515857Y-99392103D01*
X162483026Y-99441239D01*
X162441239Y-99483026D01*
X162392103Y-99515857D01*
X162337507Y-99538472D01*
X162279547Y-99550000D01*
X162220453Y-99550000D01*
X162162493Y-99538472D01*
X162107897Y-99515857D01*
X162058761Y-99483026D01*
X162016974Y-99441239D01*
X161984143Y-99392103D01*
X161961528Y-99337507D01*
X161950000Y-99279547D01*
X161950000Y-99220453D01*
X161961528Y-99162493D01*
X161984143Y-99107897D01*
X162016974Y-99058761D01*
X162058761Y-99016974D01*
X162107897Y-98984143D01*
X162162493Y-98961528D01*
X162220453Y-98950000D01*
X162279547Y-98950000D01*
X162337507Y-98961528D01*
X162337507Y-98961528D01*
G37*
G36*
X163837507Y-98961528D02*
G01*
X163892103Y-98984143D01*
X163941239Y-99016974D01*
X163983026Y-99058761D01*
X164015857Y-99107897D01*
X164038472Y-99162493D01*
X164050000Y-99220453D01*
X164050000Y-99279547D01*
X164038472Y-99337507D01*
X164015857Y-99392103D01*
X163983026Y-99441239D01*
X163941239Y-99483026D01*
X163892103Y-99515857D01*
X163837507Y-99538472D01*
X163779547Y-99550000D01*
X163720453Y-99550000D01*
X163662493Y-99538472D01*
X163607897Y-99515857D01*
X163558761Y-99483026D01*
X163516974Y-99441239D01*
X163484143Y-99392103D01*
X163461528Y-99337507D01*
X163450000Y-99279547D01*
X163450000Y-99220453D01*
X163461528Y-99162493D01*
X163484143Y-99107897D01*
X163516974Y-99058761D01*
X163558761Y-99016974D01*
X163607897Y-98984143D01*
X163662493Y-98961528D01*
X163720453Y-98950000D01*
X163779547Y-98950000D01*
X163837507Y-98961528D01*
X163837507Y-98961528D01*
G37*
G36*
X174837507Y-98961528D02*
G01*
X174892103Y-98984143D01*
X174941239Y-99016974D01*
X174983026Y-99058761D01*
X175015857Y-99107897D01*
X175038472Y-99162493D01*
X175050000Y-99220453D01*
X175050000Y-99279547D01*
X175038472Y-99337507D01*
X175015857Y-99392103D01*
X174983026Y-99441239D01*
X174941239Y-99483026D01*
X174892103Y-99515857D01*
X174837507Y-99538472D01*
X174779547Y-99550000D01*
X174720453Y-99550000D01*
X174662493Y-99538472D01*
X174607897Y-99515857D01*
X174558761Y-99483026D01*
X174516974Y-99441239D01*
X174484143Y-99392103D01*
X174461528Y-99337507D01*
X174450000Y-99279547D01*
X174450000Y-99220453D01*
X174461528Y-99162493D01*
X174484143Y-99107897D01*
X174516974Y-99058761D01*
X174558761Y-99016974D01*
X174607897Y-98984143D01*
X174662493Y-98961528D01*
X174720453Y-98950000D01*
X174779547Y-98950000D01*
X174837507Y-98961528D01*
X174837507Y-98961528D01*
G37*
G36*
X176337507Y-98961528D02*
G01*
X176392103Y-98984143D01*
X176441239Y-99016974D01*
X176483026Y-99058761D01*
X176515857Y-99107897D01*
X176538472Y-99162493D01*
X176550000Y-99220453D01*
X176550000Y-99279547D01*
X176538472Y-99337507D01*
X176515857Y-99392103D01*
X176483026Y-99441239D01*
X176441239Y-99483026D01*
X176392103Y-99515857D01*
X176337507Y-99538472D01*
X176279547Y-99550000D01*
X176220453Y-99550000D01*
X176162493Y-99538472D01*
X176107897Y-99515857D01*
X176058761Y-99483026D01*
X176016974Y-99441239D01*
X175984143Y-99392103D01*
X175961528Y-99337507D01*
X175950000Y-99279547D01*
X175950000Y-99220453D01*
X175961528Y-99162493D01*
X175984143Y-99107897D01*
X176016974Y-99058761D01*
X176058761Y-99016974D01*
X176107897Y-98984143D01*
X176162493Y-98961528D01*
X176220453Y-98950000D01*
X176279547Y-98950000D01*
X176337507Y-98961528D01*
X176337507Y-98961528D01*
G37*
G36*
X187337507Y-98961528D02*
G01*
X187392103Y-98984143D01*
X187441239Y-99016974D01*
X187483026Y-99058761D01*
X187515857Y-99107897D01*
X187538472Y-99162493D01*
X187550000Y-99220453D01*
X187550000Y-99279547D01*
X187538472Y-99337507D01*
X187515857Y-99392103D01*
X187483026Y-99441239D01*
X187441239Y-99483026D01*
X187392103Y-99515857D01*
X187337507Y-99538472D01*
X187279547Y-99550000D01*
X187220453Y-99550000D01*
X187162493Y-99538472D01*
X187107897Y-99515857D01*
X187058761Y-99483026D01*
X187016974Y-99441239D01*
X186984143Y-99392103D01*
X186961528Y-99337507D01*
X186950000Y-99279547D01*
X186950000Y-99220453D01*
X186961528Y-99162493D01*
X186984143Y-99107897D01*
X187016974Y-99058761D01*
X187058761Y-99016974D01*
X187107897Y-98984143D01*
X187162493Y-98961528D01*
X187220453Y-98950000D01*
X187279547Y-98950000D01*
X187337507Y-98961528D01*
X187337507Y-98961528D01*
G37*
G36*
X188837507Y-98961528D02*
G01*
X188892103Y-98984143D01*
X188941239Y-99016974D01*
X188983026Y-99058761D01*
X189015857Y-99107897D01*
X189038472Y-99162493D01*
X189050000Y-99220453D01*
X189050000Y-99279547D01*
X189038472Y-99337507D01*
X189015857Y-99392103D01*
X188983026Y-99441239D01*
X188941239Y-99483026D01*
X188892103Y-99515857D01*
X188837507Y-99538472D01*
X188779547Y-99550000D01*
X188720453Y-99550000D01*
X188662493Y-99538472D01*
X188607897Y-99515857D01*
X188558761Y-99483026D01*
X188516974Y-99441239D01*
X188484143Y-99392103D01*
X188461528Y-99337507D01*
X188450000Y-99279547D01*
X188450000Y-99220453D01*
X188461528Y-99162493D01*
X188484143Y-99107897D01*
X188516974Y-99058761D01*
X188558761Y-99016974D01*
X188607897Y-98984143D01*
X188662493Y-98961528D01*
X188720453Y-98950000D01*
X188779547Y-98950000D01*
X188837507Y-98961528D01*
X188837507Y-98961528D01*
G37*
G36*
X149361195Y-97633522D02*
G01*
X149410267Y-97643283D01*
X149548942Y-97700724D01*
X149673747Y-97784116D01*
X149779884Y-97890253D01*
X149863276Y-98015058D01*
X149901731Y-98107897D01*
X149920717Y-98153734D01*
X149950000Y-98300948D01*
X149950000Y-98451052D01*
X149937109Y-98515857D01*
X149920717Y-98598267D01*
X149863276Y-98736942D01*
X149779884Y-98861747D01*
X149673747Y-98967884D01*
X149548942Y-99051276D01*
X149410267Y-99108717D01*
X149361195Y-99118478D01*
X149263052Y-99138000D01*
X149112948Y-99138000D01*
X149014805Y-99118478D01*
X148965733Y-99108717D01*
X148827058Y-99051276D01*
X148702253Y-98967884D01*
X148596116Y-98861747D01*
X148512724Y-98736942D01*
X148455283Y-98598267D01*
X148438891Y-98515857D01*
X148426000Y-98451052D01*
X148426000Y-98300948D01*
X148455283Y-98153734D01*
X148474269Y-98107897D01*
X148512724Y-98015058D01*
X148596116Y-97890253D01*
X148702253Y-97784116D01*
X148827058Y-97700724D01*
X148965733Y-97643283D01*
X149014805Y-97633522D01*
X149112948Y-97614000D01*
X149263052Y-97614000D01*
X149361195Y-97633522D01*
X149361195Y-97633522D01*
G37*
G36*
X187337507Y-97961528D02*
G01*
X187392103Y-97984143D01*
X187441239Y-98016974D01*
X187483026Y-98058761D01*
X187515857Y-98107897D01*
X187538472Y-98162493D01*
X187550000Y-98220453D01*
X187550000Y-98279547D01*
X187538472Y-98337507D01*
X187515857Y-98392103D01*
X187483026Y-98441239D01*
X187441239Y-98483026D01*
X187392103Y-98515857D01*
X187337507Y-98538472D01*
X187279547Y-98550000D01*
X187220453Y-98550000D01*
X187162493Y-98538472D01*
X187107897Y-98515857D01*
X187058761Y-98483026D01*
X187016974Y-98441239D01*
X186984143Y-98392103D01*
X186961528Y-98337507D01*
X186950000Y-98279547D01*
X186950000Y-98220453D01*
X186961528Y-98162493D01*
X186984143Y-98107897D01*
X187016974Y-98058761D01*
X187058761Y-98016974D01*
X187107897Y-97984143D01*
X187162493Y-97961528D01*
X187220453Y-97950000D01*
X187279547Y-97950000D01*
X187337507Y-97961528D01*
X187337507Y-97961528D01*
G37*
G36*
X188837507Y-97961528D02*
G01*
X188892103Y-97984143D01*
X188941239Y-98016974D01*
X188983026Y-98058761D01*
X189015857Y-98107897D01*
X189038472Y-98162493D01*
X189050000Y-98220453D01*
X189050000Y-98279547D01*
X189038472Y-98337507D01*
X189015857Y-98392103D01*
X188983026Y-98441239D01*
X188941239Y-98483026D01*
X188892103Y-98515857D01*
X188837507Y-98538472D01*
X188779547Y-98550000D01*
X188720453Y-98550000D01*
X188662493Y-98538472D01*
X188607897Y-98515857D01*
X188558761Y-98483026D01*
X188516974Y-98441239D01*
X188484143Y-98392103D01*
X188461528Y-98337507D01*
X188450000Y-98279547D01*
X188450000Y-98220453D01*
X188461528Y-98162493D01*
X188484143Y-98107897D01*
X188516974Y-98058761D01*
X188558761Y-98016974D01*
X188607897Y-97984143D01*
X188662493Y-97961528D01*
X188720453Y-97950000D01*
X188779547Y-97950000D01*
X188837507Y-97961528D01*
X188837507Y-97961528D01*
G37*
G36*
X162337507Y-97961528D02*
G01*
X162392103Y-97984143D01*
X162441239Y-98016974D01*
X162483026Y-98058761D01*
X162515857Y-98107897D01*
X162538472Y-98162493D01*
X162550000Y-98220453D01*
X162550000Y-98279547D01*
X162538472Y-98337507D01*
X162515857Y-98392103D01*
X162483026Y-98441239D01*
X162441239Y-98483026D01*
X162392103Y-98515857D01*
X162337507Y-98538472D01*
X162279547Y-98550000D01*
X162220453Y-98550000D01*
X162162493Y-98538472D01*
X162107897Y-98515857D01*
X162058761Y-98483026D01*
X162016974Y-98441239D01*
X161984143Y-98392103D01*
X161961528Y-98337507D01*
X161950000Y-98279547D01*
X161950000Y-98220453D01*
X161961528Y-98162493D01*
X161984143Y-98107897D01*
X162016974Y-98058761D01*
X162058761Y-98016974D01*
X162107897Y-97984143D01*
X162162493Y-97961528D01*
X162220453Y-97950000D01*
X162279547Y-97950000D01*
X162337507Y-97961528D01*
X162337507Y-97961528D01*
G37*
G36*
X174837507Y-97961528D02*
G01*
X174892103Y-97984143D01*
X174941239Y-98016974D01*
X174983026Y-98058761D01*
X175015857Y-98107897D01*
X175038472Y-98162493D01*
X175050000Y-98220453D01*
X175050000Y-98279547D01*
X175038472Y-98337507D01*
X175015857Y-98392103D01*
X174983026Y-98441239D01*
X174941239Y-98483026D01*
X174892103Y-98515857D01*
X174837507Y-98538472D01*
X174779547Y-98550000D01*
X174720453Y-98550000D01*
X174662493Y-98538472D01*
X174607897Y-98515857D01*
X174558761Y-98483026D01*
X174516974Y-98441239D01*
X174484143Y-98392103D01*
X174461528Y-98337507D01*
X174450000Y-98279547D01*
X174450000Y-98220453D01*
X174461528Y-98162493D01*
X174484143Y-98107897D01*
X174516974Y-98058761D01*
X174558761Y-98016974D01*
X174607897Y-97984143D01*
X174662493Y-97961528D01*
X174720453Y-97950000D01*
X174779547Y-97950000D01*
X174837507Y-97961528D01*
X174837507Y-97961528D01*
G37*
G36*
X163837507Y-97961528D02*
G01*
X163892103Y-97984143D01*
X163941239Y-98016974D01*
X163983026Y-98058761D01*
X164015857Y-98107897D01*
X164038472Y-98162493D01*
X164050000Y-98220453D01*
X164050000Y-98279547D01*
X164038472Y-98337507D01*
X164015857Y-98392103D01*
X163983026Y-98441239D01*
X163941239Y-98483026D01*
X163892103Y-98515857D01*
X163837507Y-98538472D01*
X163779547Y-98550000D01*
X163720453Y-98550000D01*
X163662493Y-98538472D01*
X163607897Y-98515857D01*
X163558761Y-98483026D01*
X163516974Y-98441239D01*
X163484143Y-98392103D01*
X163461528Y-98337507D01*
X163450000Y-98279547D01*
X163450000Y-98220453D01*
X163461528Y-98162493D01*
X163484143Y-98107897D01*
X163516974Y-98058761D01*
X163558761Y-98016974D01*
X163607897Y-97984143D01*
X163662493Y-97961528D01*
X163720453Y-97950000D01*
X163779547Y-97950000D01*
X163837507Y-97961528D01*
X163837507Y-97961528D01*
G37*
G36*
X176337507Y-97961528D02*
G01*
X176392103Y-97984143D01*
X176441239Y-98016974D01*
X176483026Y-98058761D01*
X176515857Y-98107897D01*
X176538472Y-98162493D01*
X176550000Y-98220453D01*
X176550000Y-98279547D01*
X176538472Y-98337507D01*
X176515857Y-98392103D01*
X176483026Y-98441239D01*
X176441239Y-98483026D01*
X176392103Y-98515857D01*
X176337507Y-98538472D01*
X176279547Y-98550000D01*
X176220453Y-98550000D01*
X176162493Y-98538472D01*
X176107897Y-98515857D01*
X176058761Y-98483026D01*
X176016974Y-98441239D01*
X175984143Y-98392103D01*
X175961528Y-98337507D01*
X175950000Y-98279547D01*
X175950000Y-98220453D01*
X175961528Y-98162493D01*
X175984143Y-98107897D01*
X176016974Y-98058761D01*
X176058761Y-98016974D01*
X176107897Y-97984143D01*
X176162493Y-97961528D01*
X176220453Y-97950000D01*
X176279547Y-97950000D01*
X176337507Y-97961528D01*
X176337507Y-97961528D01*
G37*
G36*
X114817195Y-96507522D02*
G01*
X114866267Y-96517283D01*
X115004942Y-96574724D01*
X115129747Y-96658116D01*
X115235884Y-96764253D01*
X115319276Y-96889058D01*
X115376717Y-97027733D01*
X115376717Y-97027734D01*
X115398651Y-97138000D01*
X115406000Y-97174950D01*
X115406000Y-97325050D01*
X115376717Y-97472267D01*
X115319276Y-97610942D01*
X115235884Y-97735747D01*
X115129747Y-97841884D01*
X115004942Y-97925276D01*
X114866267Y-97982717D01*
X114817195Y-97992478D01*
X114719052Y-98012000D01*
X114568948Y-98012000D01*
X114470805Y-97992478D01*
X114421733Y-97982717D01*
X114283058Y-97925276D01*
X114158253Y-97841884D01*
X114052116Y-97735747D01*
X113968724Y-97610942D01*
X113911283Y-97472267D01*
X113882000Y-97325050D01*
X113882000Y-97174950D01*
X113889350Y-97138000D01*
X113911283Y-97027734D01*
X113911283Y-97027733D01*
X113968724Y-96889058D01*
X114052116Y-96764253D01*
X114158253Y-96658116D01*
X114283058Y-96574724D01*
X114421733Y-96517283D01*
X114470805Y-96507522D01*
X114568948Y-96488000D01*
X114719052Y-96488000D01*
X114817195Y-96507522D01*
X114817195Y-96507522D01*
G37*
G36*
X149361195Y-95633522D02*
G01*
X149410267Y-95643283D01*
X149548942Y-95700724D01*
X149673747Y-95784116D01*
X149779884Y-95890253D01*
X149863276Y-96015058D01*
X149863276Y-96015059D01*
X149920717Y-96153734D01*
X149950000Y-96300948D01*
X149950000Y-96451052D01*
X149936826Y-96517283D01*
X149920717Y-96598267D01*
X149863276Y-96736942D01*
X149779884Y-96861747D01*
X149673747Y-96967884D01*
X149548942Y-97051276D01*
X149410267Y-97108717D01*
X149361195Y-97118478D01*
X149263052Y-97138000D01*
X149112948Y-97138000D01*
X149014805Y-97118478D01*
X148965733Y-97108717D01*
X148827058Y-97051276D01*
X148702253Y-96967884D01*
X148596116Y-96861747D01*
X148512724Y-96736942D01*
X148455283Y-96598267D01*
X148439174Y-96517283D01*
X148426000Y-96451052D01*
X148426000Y-96300948D01*
X148455283Y-96153734D01*
X148512724Y-96015059D01*
X148512724Y-96015058D01*
X148596116Y-95890253D01*
X148702253Y-95784116D01*
X148827058Y-95700724D01*
X148965733Y-95643283D01*
X149014805Y-95633522D01*
X149112948Y-95614000D01*
X149263052Y-95614000D01*
X149361195Y-95633522D01*
X149361195Y-95633522D01*
G37*
G36*
X114817195Y-94507522D02*
G01*
X114866267Y-94517283D01*
X115004942Y-94574724D01*
X115129747Y-94658116D01*
X115235884Y-94764253D01*
X115319276Y-94889058D01*
X115376717Y-95027733D01*
X115376717Y-95027734D01*
X115398651Y-95138000D01*
X115406000Y-95174950D01*
X115406000Y-95325050D01*
X115376717Y-95472267D01*
X115319276Y-95610942D01*
X115235884Y-95735747D01*
X115129747Y-95841884D01*
X115004942Y-95925276D01*
X114866267Y-95982717D01*
X114817195Y-95992478D01*
X114719052Y-96012000D01*
X114568948Y-96012000D01*
X114470805Y-95992478D01*
X114421733Y-95982717D01*
X114283058Y-95925276D01*
X114158253Y-95841884D01*
X114052116Y-95735747D01*
X113968724Y-95610942D01*
X113911283Y-95472267D01*
X113882000Y-95325050D01*
X113882000Y-95174950D01*
X113889350Y-95138000D01*
X113911283Y-95027734D01*
X113911283Y-95027733D01*
X113968724Y-94889058D01*
X114052116Y-94764253D01*
X114158253Y-94658116D01*
X114283058Y-94574724D01*
X114421733Y-94517283D01*
X114470805Y-94507522D01*
X114568948Y-94488000D01*
X114719052Y-94488000D01*
X114817195Y-94507522D01*
X114817195Y-94507522D01*
G37*
G36*
X149361195Y-93633522D02*
G01*
X149410267Y-93643283D01*
X149548942Y-93700724D01*
X149673747Y-93784116D01*
X149779884Y-93890253D01*
X149863276Y-94015058D01*
X149863276Y-94015059D01*
X149920717Y-94153734D01*
X149950000Y-94300948D01*
X149950000Y-94451052D01*
X149936826Y-94517283D01*
X149920717Y-94598267D01*
X149863276Y-94736942D01*
X149779884Y-94861747D01*
X149673747Y-94967884D01*
X149548942Y-95051276D01*
X149410267Y-95108717D01*
X149361195Y-95118478D01*
X149263052Y-95138000D01*
X149112948Y-95138000D01*
X149014805Y-95118478D01*
X148965733Y-95108717D01*
X148827058Y-95051276D01*
X148702253Y-94967884D01*
X148596116Y-94861747D01*
X148512724Y-94736942D01*
X148455283Y-94598267D01*
X148439174Y-94517283D01*
X148426000Y-94451052D01*
X148426000Y-94300948D01*
X148455283Y-94153734D01*
X148512724Y-94015059D01*
X148512724Y-94015058D01*
X148596116Y-93890253D01*
X148702253Y-93784116D01*
X148827058Y-93700724D01*
X148965733Y-93643283D01*
X149014805Y-93633522D01*
X149112948Y-93614000D01*
X149263052Y-93614000D01*
X149361195Y-93633522D01*
X149361195Y-93633522D01*
G37*
G36*
X114817195Y-92507522D02*
G01*
X114866267Y-92517283D01*
X115004942Y-92574724D01*
X115129747Y-92658116D01*
X115235884Y-92764253D01*
X115319276Y-92889058D01*
X115376717Y-93027733D01*
X115406000Y-93174950D01*
X115406000Y-93325050D01*
X115376717Y-93472267D01*
X115319276Y-93610942D01*
X115235884Y-93735747D01*
X115129747Y-93841884D01*
X115004942Y-93925276D01*
X114866267Y-93982717D01*
X114817195Y-93992478D01*
X114719052Y-94012000D01*
X114568948Y-94012000D01*
X114470805Y-93992478D01*
X114421733Y-93982717D01*
X114283058Y-93925276D01*
X114158253Y-93841884D01*
X114052116Y-93735747D01*
X113968724Y-93610942D01*
X113911283Y-93472267D01*
X113882000Y-93325050D01*
X113882000Y-93174950D01*
X113911283Y-93027733D01*
X113968724Y-92889058D01*
X114052116Y-92764253D01*
X114158253Y-92658116D01*
X114283058Y-92574724D01*
X114421733Y-92517283D01*
X114470805Y-92507522D01*
X114568948Y-92488000D01*
X114719052Y-92488000D01*
X114817195Y-92507522D01*
X114817195Y-92507522D01*
G37*
G36*
X174837507Y-91961528D02*
G01*
X174892103Y-91984143D01*
X174941239Y-92016974D01*
X174983026Y-92058761D01*
X175015857Y-92107897D01*
X175038472Y-92162493D01*
X175050000Y-92220453D01*
X175050000Y-92279547D01*
X175038472Y-92337507D01*
X175015857Y-92392103D01*
X174983026Y-92441239D01*
X174941239Y-92483026D01*
X174892103Y-92515857D01*
X174837507Y-92538472D01*
X174779547Y-92550000D01*
X174720453Y-92550000D01*
X174662493Y-92538472D01*
X174607897Y-92515857D01*
X174558761Y-92483026D01*
X174516974Y-92441239D01*
X174484143Y-92392103D01*
X174461528Y-92337507D01*
X174450000Y-92279547D01*
X174450000Y-92220453D01*
X174461528Y-92162493D01*
X174484143Y-92107897D01*
X174516974Y-92058761D01*
X174558761Y-92016974D01*
X174607897Y-91984143D01*
X174662493Y-91961528D01*
X174720453Y-91950000D01*
X174779547Y-91950000D01*
X174837507Y-91961528D01*
X174837507Y-91961528D01*
G37*
G36*
X176837507Y-91961528D02*
G01*
X176892103Y-91984143D01*
X176941239Y-92016974D01*
X176983026Y-92058761D01*
X177015857Y-92107897D01*
X177038472Y-92162493D01*
X177050000Y-92220453D01*
X177050000Y-92279547D01*
X177038472Y-92337507D01*
X177015857Y-92392103D01*
X176983026Y-92441239D01*
X176941239Y-92483026D01*
X176892103Y-92515857D01*
X176837507Y-92538472D01*
X176779547Y-92550000D01*
X176720453Y-92550000D01*
X176662493Y-92538472D01*
X176607897Y-92515857D01*
X176558761Y-92483026D01*
X176516974Y-92441239D01*
X176484143Y-92392103D01*
X176461528Y-92337507D01*
X176450000Y-92279547D01*
X176450000Y-92220453D01*
X176461528Y-92162493D01*
X176484143Y-92107897D01*
X176516974Y-92058761D01*
X176558761Y-92016974D01*
X176607897Y-91984143D01*
X176662493Y-91961528D01*
X176720453Y-91950000D01*
X176779547Y-91950000D01*
X176837507Y-91961528D01*
X176837507Y-91961528D01*
G37*
G36*
X175837507Y-91961528D02*
G01*
X175892103Y-91984143D01*
X175941239Y-92016974D01*
X175983026Y-92058761D01*
X176015857Y-92107897D01*
X176038472Y-92162493D01*
X176050000Y-92220453D01*
X176050000Y-92279547D01*
X176038472Y-92337507D01*
X176015857Y-92392103D01*
X175983026Y-92441239D01*
X175941239Y-92483026D01*
X175892103Y-92515857D01*
X175837507Y-92538472D01*
X175779547Y-92550000D01*
X175720453Y-92550000D01*
X175662493Y-92538472D01*
X175607897Y-92515857D01*
X175558761Y-92483026D01*
X175516974Y-92441239D01*
X175484143Y-92392103D01*
X175461528Y-92337507D01*
X175450000Y-92279547D01*
X175450000Y-92220453D01*
X175461528Y-92162493D01*
X175484143Y-92107897D01*
X175516974Y-92058761D01*
X175558761Y-92016974D01*
X175607897Y-91984143D01*
X175662493Y-91961528D01*
X175720453Y-91950000D01*
X175779547Y-91950000D01*
X175837507Y-91961528D01*
X175837507Y-91961528D01*
G37*
G36*
X187337507Y-91961528D02*
G01*
X187392103Y-91984143D01*
X187441239Y-92016974D01*
X187483026Y-92058761D01*
X187515857Y-92107897D01*
X187538472Y-92162493D01*
X187550000Y-92220453D01*
X187550000Y-92279547D01*
X187538472Y-92337507D01*
X187515857Y-92392103D01*
X187483026Y-92441239D01*
X187441239Y-92483026D01*
X187392103Y-92515857D01*
X187337507Y-92538472D01*
X187279547Y-92550000D01*
X187220453Y-92550000D01*
X187162493Y-92538472D01*
X187107897Y-92515857D01*
X187058761Y-92483026D01*
X187016974Y-92441239D01*
X186984143Y-92392103D01*
X186961528Y-92337507D01*
X186950000Y-92279547D01*
X186950000Y-92220453D01*
X186961528Y-92162493D01*
X186984143Y-92107897D01*
X187016974Y-92058761D01*
X187058761Y-92016974D01*
X187107897Y-91984143D01*
X187162493Y-91961528D01*
X187220453Y-91950000D01*
X187279547Y-91950000D01*
X187337507Y-91961528D01*
X187337507Y-91961528D01*
G37*
G36*
X188337507Y-91961528D02*
G01*
X188392103Y-91984143D01*
X188441239Y-92016974D01*
X188483026Y-92058761D01*
X188515857Y-92107897D01*
X188538472Y-92162493D01*
X188550000Y-92220453D01*
X188550000Y-92279547D01*
X188538472Y-92337507D01*
X188515857Y-92392103D01*
X188483026Y-92441239D01*
X188441239Y-92483026D01*
X188392103Y-92515857D01*
X188337507Y-92538472D01*
X188279547Y-92550000D01*
X188220453Y-92550000D01*
X188162493Y-92538472D01*
X188107897Y-92515857D01*
X188058761Y-92483026D01*
X188016974Y-92441239D01*
X187984143Y-92392103D01*
X187961528Y-92337507D01*
X187950000Y-92279547D01*
X187950000Y-92220453D01*
X187961528Y-92162493D01*
X187984143Y-92107897D01*
X188016974Y-92058761D01*
X188058761Y-92016974D01*
X188107897Y-91984143D01*
X188162493Y-91961528D01*
X188220453Y-91950000D01*
X188279547Y-91950000D01*
X188337507Y-91961528D01*
X188337507Y-91961528D01*
G37*
G36*
X162337507Y-91961528D02*
G01*
X162392103Y-91984143D01*
X162441239Y-92016974D01*
X162483026Y-92058761D01*
X162515857Y-92107897D01*
X162538472Y-92162493D01*
X162550000Y-92220453D01*
X162550000Y-92279547D01*
X162538472Y-92337507D01*
X162515857Y-92392103D01*
X162483026Y-92441239D01*
X162441239Y-92483026D01*
X162392103Y-92515857D01*
X162337507Y-92538472D01*
X162279547Y-92550000D01*
X162220453Y-92550000D01*
X162162493Y-92538472D01*
X162107897Y-92515857D01*
X162058761Y-92483026D01*
X162016974Y-92441239D01*
X161984143Y-92392103D01*
X161961528Y-92337507D01*
X161950000Y-92279547D01*
X161950000Y-92220453D01*
X161961528Y-92162493D01*
X161984143Y-92107897D01*
X162016974Y-92058761D01*
X162058761Y-92016974D01*
X162107897Y-91984143D01*
X162162493Y-91961528D01*
X162220453Y-91950000D01*
X162279547Y-91950000D01*
X162337507Y-91961528D01*
X162337507Y-91961528D01*
G37*
G36*
X163337507Y-91961528D02*
G01*
X163392103Y-91984143D01*
X163441239Y-92016974D01*
X163483026Y-92058761D01*
X163515857Y-92107897D01*
X163538472Y-92162493D01*
X163550000Y-92220453D01*
X163550000Y-92279547D01*
X163538472Y-92337507D01*
X163515857Y-92392103D01*
X163483026Y-92441239D01*
X163441239Y-92483026D01*
X163392103Y-92515857D01*
X163337507Y-92538472D01*
X163279547Y-92550000D01*
X163220453Y-92550000D01*
X163162493Y-92538472D01*
X163107897Y-92515857D01*
X163058761Y-92483026D01*
X163016974Y-92441239D01*
X162984143Y-92392103D01*
X162961528Y-92337507D01*
X162950000Y-92279547D01*
X162950000Y-92220453D01*
X162961528Y-92162493D01*
X162984143Y-92107897D01*
X163016974Y-92058761D01*
X163058761Y-92016974D01*
X163107897Y-91984143D01*
X163162493Y-91961528D01*
X163220453Y-91950000D01*
X163279547Y-91950000D01*
X163337507Y-91961528D01*
X163337507Y-91961528D01*
G37*
G36*
X164337507Y-91961528D02*
G01*
X164392103Y-91984143D01*
X164441239Y-92016974D01*
X164483026Y-92058761D01*
X164515857Y-92107897D01*
X164538472Y-92162493D01*
X164550000Y-92220453D01*
X164550000Y-92279547D01*
X164538472Y-92337507D01*
X164515857Y-92392103D01*
X164483026Y-92441239D01*
X164441239Y-92483026D01*
X164392103Y-92515857D01*
X164337507Y-92538472D01*
X164279547Y-92550000D01*
X164220453Y-92550000D01*
X164162493Y-92538472D01*
X164107897Y-92515857D01*
X164058761Y-92483026D01*
X164016974Y-92441239D01*
X163984143Y-92392103D01*
X163961528Y-92337507D01*
X163950000Y-92279547D01*
X163950000Y-92220453D01*
X163961528Y-92162493D01*
X163984143Y-92107897D01*
X164016974Y-92058761D01*
X164058761Y-92016974D01*
X164107897Y-91984143D01*
X164162493Y-91961528D01*
X164220453Y-91950000D01*
X164279547Y-91950000D01*
X164337507Y-91961528D01*
X164337507Y-91961528D01*
G37*
G36*
X189337507Y-91961528D02*
G01*
X189392103Y-91984143D01*
X189441239Y-92016974D01*
X189483026Y-92058761D01*
X189515857Y-92107897D01*
X189538472Y-92162493D01*
X189550000Y-92220453D01*
X189550000Y-92279547D01*
X189538472Y-92337507D01*
X189515857Y-92392103D01*
X189483026Y-92441239D01*
X189441239Y-92483026D01*
X189392103Y-92515857D01*
X189337507Y-92538472D01*
X189279547Y-92550000D01*
X189220453Y-92550000D01*
X189162493Y-92538472D01*
X189107897Y-92515857D01*
X189058761Y-92483026D01*
X189016974Y-92441239D01*
X188984143Y-92392103D01*
X188961528Y-92337507D01*
X188950000Y-92279547D01*
X188950000Y-92220453D01*
X188961528Y-92162493D01*
X188984143Y-92107897D01*
X189016974Y-92058761D01*
X189058761Y-92016974D01*
X189107897Y-91984143D01*
X189162493Y-91961528D01*
X189220453Y-91950000D01*
X189279547Y-91950000D01*
X189337507Y-91961528D01*
X189337507Y-91961528D01*
G37*
G36*
X114817195Y-90507522D02*
G01*
X114866267Y-90517283D01*
X115004942Y-90574724D01*
X115129747Y-90658116D01*
X115235884Y-90764253D01*
X115319276Y-90889058D01*
X115376717Y-91027733D01*
X115406000Y-91174950D01*
X115406000Y-91325050D01*
X115376717Y-91472267D01*
X115319276Y-91610942D01*
X115235884Y-91735747D01*
X115129747Y-91841884D01*
X115004942Y-91925276D01*
X114866267Y-91982717D01*
X114817195Y-91992478D01*
X114719052Y-92012000D01*
X114568948Y-92012000D01*
X114470805Y-91992478D01*
X114421733Y-91982717D01*
X114283058Y-91925276D01*
X114158253Y-91841884D01*
X114052116Y-91735747D01*
X113968724Y-91610942D01*
X113911283Y-91472267D01*
X113882000Y-91325050D01*
X113882000Y-91174950D01*
X113911283Y-91027733D01*
X113968724Y-90889058D01*
X114052116Y-90764253D01*
X114158253Y-90658116D01*
X114283058Y-90574724D01*
X114421733Y-90517283D01*
X114470805Y-90507522D01*
X114568948Y-90488000D01*
X114719052Y-90488000D01*
X114817195Y-90507522D01*
X114817195Y-90507522D01*
G37*
G36*
X151012031Y-90607896D02*
G01*
X151048429Y-90615136D01*
X151098476Y-90635866D01*
X151148524Y-90656597D01*
X151238602Y-90716785D01*
X151315215Y-90793398D01*
X151375403Y-90883476D01*
X151396134Y-90933524D01*
X151416639Y-90983027D01*
X151416864Y-90983572D01*
X151430078Y-91050000D01*
X151438000Y-91089830D01*
X151438000Y-91198170D01*
X151416864Y-91304429D01*
X151396134Y-91354476D01*
X151375403Y-91404524D01*
X151315215Y-91494602D01*
X151238602Y-91571215D01*
X151148524Y-91631403D01*
X151098476Y-91652134D01*
X151048429Y-91672864D01*
X151013009Y-91679909D01*
X150942172Y-91694000D01*
X150833828Y-91694000D01*
X150762991Y-91679909D01*
X150727571Y-91672864D01*
X150677524Y-91652133D01*
X150627476Y-91631403D01*
X150537398Y-91571215D01*
X150460785Y-91494602D01*
X150400597Y-91404524D01*
X150379867Y-91354476D01*
X150359136Y-91304429D01*
X150338000Y-91198170D01*
X150338000Y-91089830D01*
X150345923Y-91050000D01*
X150359136Y-90983572D01*
X150359362Y-90983027D01*
X150379867Y-90933524D01*
X150400597Y-90883476D01*
X150460785Y-90793398D01*
X150537398Y-90716785D01*
X150627476Y-90656597D01*
X150677524Y-90635866D01*
X150727571Y-90615136D01*
X150763969Y-90607896D01*
X150833828Y-90594000D01*
X150942172Y-90594000D01*
X151012031Y-90607896D01*
X151012031Y-90607896D01*
G37*
G36*
X188337507Y-90461528D02*
G01*
X188392103Y-90484143D01*
X188441239Y-90516974D01*
X188483026Y-90558761D01*
X188515857Y-90607897D01*
X188538472Y-90662493D01*
X188550000Y-90720453D01*
X188550000Y-90779547D01*
X188538472Y-90837507D01*
X188515857Y-90892103D01*
X188483026Y-90941239D01*
X188441239Y-90983026D01*
X188392103Y-91015857D01*
X188337507Y-91038472D01*
X188279547Y-91050000D01*
X188220453Y-91050000D01*
X188162493Y-91038472D01*
X188107897Y-91015857D01*
X188058761Y-90983026D01*
X188016974Y-90941239D01*
X187984143Y-90892103D01*
X187961528Y-90837507D01*
X187950000Y-90779547D01*
X187950000Y-90720453D01*
X187961528Y-90662493D01*
X187984143Y-90607897D01*
X188016974Y-90558761D01*
X188058761Y-90516974D01*
X188107897Y-90484143D01*
X188162493Y-90461528D01*
X188220453Y-90450000D01*
X188279547Y-90450000D01*
X188337507Y-90461528D01*
X188337507Y-90461528D01*
G37*
G36*
X189337507Y-90461528D02*
G01*
X189392103Y-90484143D01*
X189441239Y-90516974D01*
X189483026Y-90558761D01*
X189515857Y-90607897D01*
X189538472Y-90662493D01*
X189550000Y-90720453D01*
X189550000Y-90779547D01*
X189538472Y-90837507D01*
X189515857Y-90892103D01*
X189483026Y-90941239D01*
X189441239Y-90983026D01*
X189392103Y-91015857D01*
X189337507Y-91038472D01*
X189279547Y-91050000D01*
X189220453Y-91050000D01*
X189162493Y-91038472D01*
X189107897Y-91015857D01*
X189058761Y-90983026D01*
X189016974Y-90941239D01*
X188984143Y-90892103D01*
X188961528Y-90837507D01*
X188950000Y-90779547D01*
X188950000Y-90720453D01*
X188961528Y-90662493D01*
X188984143Y-90607897D01*
X189016974Y-90558761D01*
X189058761Y-90516974D01*
X189107897Y-90484143D01*
X189162493Y-90461528D01*
X189220453Y-90450000D01*
X189279547Y-90450000D01*
X189337507Y-90461528D01*
X189337507Y-90461528D01*
G37*
G36*
X163337507Y-90461528D02*
G01*
X163392103Y-90484143D01*
X163441239Y-90516974D01*
X163483026Y-90558761D01*
X163515857Y-90607897D01*
X163538472Y-90662493D01*
X163550000Y-90720453D01*
X163550000Y-90779547D01*
X163538472Y-90837507D01*
X163515857Y-90892103D01*
X163483026Y-90941239D01*
X163441239Y-90983026D01*
X163392103Y-91015857D01*
X163337507Y-91038472D01*
X163279547Y-91050000D01*
X163220453Y-91050000D01*
X163162493Y-91038472D01*
X163107897Y-91015857D01*
X163058761Y-90983026D01*
X163016974Y-90941239D01*
X162984143Y-90892103D01*
X162961528Y-90837507D01*
X162950000Y-90779547D01*
X162950000Y-90720453D01*
X162961528Y-90662493D01*
X162984143Y-90607897D01*
X163016974Y-90558761D01*
X163058761Y-90516974D01*
X163107897Y-90484143D01*
X163162493Y-90461528D01*
X163220453Y-90450000D01*
X163279547Y-90450000D01*
X163337507Y-90461528D01*
X163337507Y-90461528D01*
G37*
G36*
X162337507Y-90461528D02*
G01*
X162392103Y-90484143D01*
X162441239Y-90516974D01*
X162483026Y-90558761D01*
X162515857Y-90607897D01*
X162538472Y-90662493D01*
X162550000Y-90720453D01*
X162550000Y-90779547D01*
X162538472Y-90837507D01*
X162515857Y-90892103D01*
X162483026Y-90941239D01*
X162441239Y-90983026D01*
X162392103Y-91015857D01*
X162337507Y-91038472D01*
X162279547Y-91050000D01*
X162220453Y-91050000D01*
X162162493Y-91038472D01*
X162107897Y-91015857D01*
X162058761Y-90983026D01*
X162016974Y-90941239D01*
X161984143Y-90892103D01*
X161961528Y-90837507D01*
X161950000Y-90779547D01*
X161950000Y-90720453D01*
X161961528Y-90662493D01*
X161984143Y-90607897D01*
X162016974Y-90558761D01*
X162058761Y-90516974D01*
X162107897Y-90484143D01*
X162162493Y-90461528D01*
X162220453Y-90450000D01*
X162279547Y-90450000D01*
X162337507Y-90461528D01*
X162337507Y-90461528D01*
G37*
G36*
X174837507Y-90461528D02*
G01*
X174892103Y-90484143D01*
X174941239Y-90516974D01*
X174983026Y-90558761D01*
X175015857Y-90607897D01*
X175038472Y-90662493D01*
X175050000Y-90720453D01*
X175050000Y-90779547D01*
X175038472Y-90837507D01*
X175015857Y-90892103D01*
X174983026Y-90941239D01*
X174941239Y-90983026D01*
X174892103Y-91015857D01*
X174837507Y-91038472D01*
X174779547Y-91050000D01*
X174720453Y-91050000D01*
X174662493Y-91038472D01*
X174607897Y-91015857D01*
X174558761Y-90983026D01*
X174516974Y-90941239D01*
X174484143Y-90892103D01*
X174461528Y-90837507D01*
X174450000Y-90779547D01*
X174450000Y-90720453D01*
X174461528Y-90662493D01*
X174484143Y-90607897D01*
X174516974Y-90558761D01*
X174558761Y-90516974D01*
X174607897Y-90484143D01*
X174662493Y-90461528D01*
X174720453Y-90450000D01*
X174779547Y-90450000D01*
X174837507Y-90461528D01*
X174837507Y-90461528D01*
G37*
G36*
X175837507Y-90461528D02*
G01*
X175892103Y-90484143D01*
X175941239Y-90516974D01*
X175983026Y-90558761D01*
X176015857Y-90607897D01*
X176038472Y-90662493D01*
X176050000Y-90720453D01*
X176050000Y-90779547D01*
X176038472Y-90837507D01*
X176015857Y-90892103D01*
X175983026Y-90941239D01*
X175941239Y-90983026D01*
X175892103Y-91015857D01*
X175837507Y-91038472D01*
X175779547Y-91050000D01*
X175720453Y-91050000D01*
X175662493Y-91038472D01*
X175607897Y-91015857D01*
X175558761Y-90983026D01*
X175516974Y-90941239D01*
X175484143Y-90892103D01*
X175461528Y-90837507D01*
X175450000Y-90779547D01*
X175450000Y-90720453D01*
X175461528Y-90662493D01*
X175484143Y-90607897D01*
X175516974Y-90558761D01*
X175558761Y-90516974D01*
X175607897Y-90484143D01*
X175662493Y-90461528D01*
X175720453Y-90450000D01*
X175779547Y-90450000D01*
X175837507Y-90461528D01*
X175837507Y-90461528D01*
G37*
G36*
X176837507Y-90461528D02*
G01*
X176892103Y-90484143D01*
X176941239Y-90516974D01*
X176983026Y-90558761D01*
X177015857Y-90607897D01*
X177038472Y-90662493D01*
X177050000Y-90720453D01*
X177050000Y-90779547D01*
X177038472Y-90837507D01*
X177015857Y-90892103D01*
X176983026Y-90941239D01*
X176941239Y-90983026D01*
X176892103Y-91015857D01*
X176837507Y-91038472D01*
X176779547Y-91050000D01*
X176720453Y-91050000D01*
X176662493Y-91038472D01*
X176607897Y-91015857D01*
X176558761Y-90983026D01*
X176516974Y-90941239D01*
X176484143Y-90892103D01*
X176461528Y-90837507D01*
X176450000Y-90779547D01*
X176450000Y-90720453D01*
X176461528Y-90662493D01*
X176484143Y-90607897D01*
X176516974Y-90558761D01*
X176558761Y-90516974D01*
X176607897Y-90484143D01*
X176662493Y-90461528D01*
X176720453Y-90450000D01*
X176779547Y-90450000D01*
X176837507Y-90461528D01*
X176837507Y-90461528D01*
G37*
G36*
X187337507Y-90461528D02*
G01*
X187392103Y-90484143D01*
X187441239Y-90516974D01*
X187483026Y-90558761D01*
X187515857Y-90607897D01*
X187538472Y-90662493D01*
X187550000Y-90720453D01*
X187550000Y-90779547D01*
X187538472Y-90837507D01*
X187515857Y-90892103D01*
X187483026Y-90941239D01*
X187441239Y-90983026D01*
X187392103Y-91015857D01*
X187337507Y-91038472D01*
X187279547Y-91050000D01*
X187220453Y-91050000D01*
X187162493Y-91038472D01*
X187107897Y-91015857D01*
X187058761Y-90983026D01*
X187016974Y-90941239D01*
X186984143Y-90892103D01*
X186961528Y-90837507D01*
X186950000Y-90779547D01*
X186950000Y-90720453D01*
X186961528Y-90662493D01*
X186984143Y-90607897D01*
X187016974Y-90558761D01*
X187058761Y-90516974D01*
X187107897Y-90484143D01*
X187162493Y-90461528D01*
X187220453Y-90450000D01*
X187279547Y-90450000D01*
X187337507Y-90461528D01*
X187337507Y-90461528D01*
G37*
G36*
X164337507Y-90461528D02*
G01*
X164392103Y-90484143D01*
X164441239Y-90516974D01*
X164483026Y-90558761D01*
X164515857Y-90607897D01*
X164538472Y-90662493D01*
X164550000Y-90720453D01*
X164550000Y-90779547D01*
X164538472Y-90837507D01*
X164515857Y-90892103D01*
X164483026Y-90941239D01*
X164441239Y-90983026D01*
X164392103Y-91015857D01*
X164337507Y-91038472D01*
X164279547Y-91050000D01*
X164220453Y-91050000D01*
X164162493Y-91038472D01*
X164107897Y-91015857D01*
X164058761Y-90983026D01*
X164016974Y-90941239D01*
X163984143Y-90892103D01*
X163961528Y-90837507D01*
X163950000Y-90779547D01*
X163950000Y-90720453D01*
X163961528Y-90662493D01*
X163984143Y-90607897D01*
X164016974Y-90558761D01*
X164058761Y-90516974D01*
X164107897Y-90484143D01*
X164162493Y-90461528D01*
X164220453Y-90450000D01*
X164279547Y-90450000D01*
X164337507Y-90461528D01*
X164337507Y-90461528D01*
G37*
G36*
X149361195Y-88901522D02*
G01*
X149410267Y-88911283D01*
X149548942Y-88968724D01*
X149673747Y-89052116D01*
X149779884Y-89158253D01*
X149863276Y-89283058D01*
X149920717Y-89421733D01*
X149950000Y-89568950D01*
X149950000Y-89719050D01*
X149920717Y-89866267D01*
X149863276Y-90004942D01*
X149779884Y-90129747D01*
X149673747Y-90235884D01*
X149548942Y-90319276D01*
X149410267Y-90376717D01*
X149361195Y-90386478D01*
X149263052Y-90406000D01*
X149112948Y-90406000D01*
X149014805Y-90386478D01*
X148965733Y-90376717D01*
X148827058Y-90319276D01*
X148702253Y-90235884D01*
X148596116Y-90129747D01*
X148512724Y-90004942D01*
X148455283Y-89866267D01*
X148426000Y-89719050D01*
X148426000Y-89568950D01*
X148455283Y-89421733D01*
X148512724Y-89283058D01*
X148596116Y-89158253D01*
X148702253Y-89052116D01*
X148827058Y-88968724D01*
X148965733Y-88911283D01*
X149014805Y-88901522D01*
X149112948Y-88882000D01*
X149263052Y-88882000D01*
X149361195Y-88901522D01*
X149361195Y-88901522D01*
G37*
G36*
X114817195Y-88507522D02*
G01*
X114866267Y-88517283D01*
X115004942Y-88574724D01*
X115129747Y-88658116D01*
X115235884Y-88764253D01*
X115319276Y-88889058D01*
X115376717Y-89027733D01*
X115406000Y-89174950D01*
X115406000Y-89325050D01*
X115376717Y-89472267D01*
X115319276Y-89610942D01*
X115235884Y-89735747D01*
X115129747Y-89841884D01*
X115004942Y-89925276D01*
X114866267Y-89982717D01*
X114817195Y-89992478D01*
X114719052Y-90012000D01*
X114568948Y-90012000D01*
X114470805Y-89992478D01*
X114421733Y-89982717D01*
X114283058Y-89925276D01*
X114158253Y-89841884D01*
X114052116Y-89735747D01*
X113968724Y-89610942D01*
X113911283Y-89472267D01*
X113882000Y-89325050D01*
X113882000Y-89174950D01*
X113911283Y-89027733D01*
X113968724Y-88889058D01*
X114052116Y-88764253D01*
X114158253Y-88658116D01*
X114283058Y-88574724D01*
X114421733Y-88517283D01*
X114470805Y-88507522D01*
X114568948Y-88488000D01*
X114719052Y-88488000D01*
X114817195Y-88507522D01*
X114817195Y-88507522D01*
G37*
G36*
X149361195Y-86901522D02*
G01*
X149410267Y-86911283D01*
X149548942Y-86968724D01*
X149673747Y-87052116D01*
X149779884Y-87158253D01*
X149863276Y-87283058D01*
X149920717Y-87421733D01*
X149950000Y-87568950D01*
X149950000Y-87719050D01*
X149920717Y-87866267D01*
X149863276Y-88004942D01*
X149779884Y-88129747D01*
X149673747Y-88235884D01*
X149548942Y-88319276D01*
X149410267Y-88376717D01*
X149361195Y-88386478D01*
X149263052Y-88406000D01*
X149112948Y-88406000D01*
X149014805Y-88386478D01*
X148965733Y-88376717D01*
X148827058Y-88319276D01*
X148702253Y-88235884D01*
X148596116Y-88129747D01*
X148512724Y-88004942D01*
X148455283Y-87866267D01*
X148426000Y-87719050D01*
X148426000Y-87568950D01*
X148455283Y-87421733D01*
X148512724Y-87283058D01*
X148596116Y-87158253D01*
X148702253Y-87052116D01*
X148827058Y-86968724D01*
X148965733Y-86911283D01*
X149014805Y-86901522D01*
X149112948Y-86882000D01*
X149263052Y-86882000D01*
X149361195Y-86901522D01*
X149361195Y-86901522D01*
G37*
G36*
X116469009Y-85714091D02*
G01*
X116504429Y-85721136D01*
X116554476Y-85741867D01*
X116604524Y-85762597D01*
X116694602Y-85822785D01*
X116771215Y-85899398D01*
X116831403Y-85989476D01*
X116872864Y-86089572D01*
X116894000Y-86195828D01*
X116894000Y-86304172D01*
X116872864Y-86410428D01*
X116831403Y-86510524D01*
X116771215Y-86600602D01*
X116694602Y-86677215D01*
X116604524Y-86737403D01*
X116554476Y-86758133D01*
X116504429Y-86778864D01*
X116469009Y-86785909D01*
X116398172Y-86800000D01*
X116289828Y-86800000D01*
X116218991Y-86785909D01*
X116183571Y-86778864D01*
X116133524Y-86758133D01*
X116083476Y-86737403D01*
X115993398Y-86677215D01*
X115916785Y-86600602D01*
X115856597Y-86510524D01*
X115815136Y-86410428D01*
X115794000Y-86304172D01*
X115794000Y-86195828D01*
X115815136Y-86089572D01*
X115856597Y-85989476D01*
X115916785Y-85899398D01*
X115993398Y-85822785D01*
X116083476Y-85762597D01*
X116133524Y-85741867D01*
X116183571Y-85721136D01*
X116218991Y-85714091D01*
X116289828Y-85700000D01*
X116398172Y-85700000D01*
X116469009Y-85714091D01*
X116469009Y-85714091D01*
G37*
G36*
X149361119Y-84901507D02*
G01*
X149410267Y-84911283D01*
X149548942Y-84968724D01*
X149673747Y-85052116D01*
X149779884Y-85158253D01*
X149863276Y-85283058D01*
X149920717Y-85421733D01*
X149950000Y-85568950D01*
X149950000Y-85719050D01*
X149920717Y-85866267D01*
X149863276Y-86004942D01*
X149779884Y-86129747D01*
X149673747Y-86235884D01*
X149548942Y-86319276D01*
X149410267Y-86376717D01*
X149361195Y-86386478D01*
X149263052Y-86406000D01*
X149112948Y-86406000D01*
X149014805Y-86386478D01*
X148965733Y-86376717D01*
X148827058Y-86319276D01*
X148702253Y-86235884D01*
X148596116Y-86129747D01*
X148512724Y-86004942D01*
X148455283Y-85866267D01*
X148426000Y-85719050D01*
X148426000Y-85568950D01*
X148455283Y-85421733D01*
X148512724Y-85283058D01*
X148596116Y-85158253D01*
X148702253Y-85052116D01*
X148827058Y-84968724D01*
X148965733Y-84911283D01*
X149014881Y-84901507D01*
X149112948Y-84882000D01*
X149263052Y-84882000D01*
X149361119Y-84901507D01*
X149361119Y-84901507D01*
G37*
G36*
X187185380Y-84017283D02*
G01*
X187291689Y-84038429D01*
X187473678Y-84113811D01*
X187637463Y-84223249D01*
X187776751Y-84362537D01*
X187886189Y-84526322D01*
X187947752Y-84674950D01*
X187961571Y-84708312D01*
X188000000Y-84901507D01*
X188000000Y-85098493D01*
X187988113Y-85158253D01*
X187961571Y-85291689D01*
X187886189Y-85473678D01*
X187776751Y-85637463D01*
X187637463Y-85776751D01*
X187473678Y-85886189D01*
X187291689Y-85961571D01*
X187227290Y-85974381D01*
X187098493Y-86000000D01*
X186901507Y-86000000D01*
X186772710Y-85974381D01*
X186708311Y-85961571D01*
X186526322Y-85886189D01*
X186362537Y-85776751D01*
X186223249Y-85637463D01*
X186113811Y-85473678D01*
X186038429Y-85291689D01*
X186011887Y-85158253D01*
X186000000Y-85098493D01*
X186000000Y-84901507D01*
X186038429Y-84708312D01*
X186052248Y-84674950D01*
X186113811Y-84526322D01*
X186223249Y-84362537D01*
X186362537Y-84223249D01*
X186526322Y-84113811D01*
X186708311Y-84038429D01*
X186814620Y-84017283D01*
X186901507Y-84000000D01*
X187098493Y-84000000D01*
X187185380Y-84017283D01*
X187185380Y-84017283D01*
G37*
G36*
X162185380Y-84017283D02*
G01*
X162291689Y-84038429D01*
X162473678Y-84113811D01*
X162637463Y-84223249D01*
X162776751Y-84362537D01*
X162886189Y-84526322D01*
X162947752Y-84674950D01*
X162961571Y-84708312D01*
X163000000Y-84901507D01*
X163000000Y-85098493D01*
X162988113Y-85158253D01*
X162961571Y-85291689D01*
X162886189Y-85473678D01*
X162776751Y-85637463D01*
X162637463Y-85776751D01*
X162473678Y-85886189D01*
X162291689Y-85961571D01*
X162227290Y-85974381D01*
X162098493Y-86000000D01*
X161901507Y-86000000D01*
X161772710Y-85974381D01*
X161708311Y-85961571D01*
X161526322Y-85886189D01*
X161362537Y-85776751D01*
X161223249Y-85637463D01*
X161113811Y-85473678D01*
X161038429Y-85291689D01*
X161011887Y-85158253D01*
X161000000Y-85098493D01*
X161000000Y-84901507D01*
X161038429Y-84708312D01*
X161052248Y-84674950D01*
X161113811Y-84526322D01*
X161223249Y-84362537D01*
X161362537Y-84223249D01*
X161526322Y-84113811D01*
X161708311Y-84038429D01*
X161814620Y-84017283D01*
X161901507Y-84000000D01*
X162098493Y-84000000D01*
X162185380Y-84017283D01*
X162185380Y-84017283D01*
G37*
G36*
X183000000Y-86000000D02*
G01*
X181000000Y-86000000D01*
X181000000Y-84000000D01*
X183000000Y-84000000D01*
X183000000Y-86000000D01*
X183000000Y-86000000D01*
G37*
G36*
X158000000Y-86000000D02*
G01*
X156000000Y-86000000D01*
X156000000Y-84000000D01*
X158000000Y-84000000D01*
X158000000Y-86000000D01*
X158000000Y-86000000D01*
G37*
G36*
X114779379Y-84000000D02*
G01*
X114866267Y-84017283D01*
X115004942Y-84074724D01*
X115129747Y-84158116D01*
X115235884Y-84264253D01*
X115319276Y-84389058D01*
X115376717Y-84527733D01*
X115406000Y-84674950D01*
X115406000Y-84825050D01*
X115376717Y-84972267D01*
X115319276Y-85110942D01*
X115235884Y-85235747D01*
X115129747Y-85341884D01*
X115004942Y-85425276D01*
X114866267Y-85482717D01*
X114817195Y-85492478D01*
X114719052Y-85512000D01*
X114568948Y-85512000D01*
X114470805Y-85492478D01*
X114421733Y-85482717D01*
X114283058Y-85425276D01*
X114158253Y-85341884D01*
X114052116Y-85235747D01*
X113968724Y-85110942D01*
X113911283Y-84972267D01*
X113882000Y-84825050D01*
X113882000Y-84674950D01*
X113911283Y-84527733D01*
X113968724Y-84389058D01*
X114052116Y-84264253D01*
X114158253Y-84158116D01*
X114283058Y-84074724D01*
X114421733Y-84017283D01*
X114508621Y-84000000D01*
X114568948Y-83988000D01*
X114719052Y-83988000D01*
X114779379Y-84000000D01*
X114779379Y-84000000D01*
G37*
G36*
X149361195Y-82901522D02*
G01*
X149410267Y-82911283D01*
X149548942Y-82968724D01*
X149673747Y-83052116D01*
X149779884Y-83158253D01*
X149863276Y-83283058D01*
X149920717Y-83421733D01*
X149950000Y-83568950D01*
X149950000Y-83719050D01*
X149920717Y-83866267D01*
X149863276Y-84004942D01*
X149779884Y-84129747D01*
X149673747Y-84235884D01*
X149548942Y-84319276D01*
X149410267Y-84376717D01*
X149361195Y-84386478D01*
X149263052Y-84406000D01*
X149112948Y-84406000D01*
X149014805Y-84386478D01*
X148965733Y-84376717D01*
X148827058Y-84319276D01*
X148702253Y-84235884D01*
X148596116Y-84129747D01*
X148512724Y-84004942D01*
X148455283Y-83866267D01*
X148426000Y-83719050D01*
X148426000Y-83568950D01*
X148455283Y-83421733D01*
X148512724Y-83283058D01*
X148596116Y-83158253D01*
X148702253Y-83052116D01*
X148827058Y-82968724D01*
X148965733Y-82911283D01*
X149014805Y-82901522D01*
X149112948Y-82882000D01*
X149263052Y-82882000D01*
X149361195Y-82901522D01*
X149361195Y-82901522D01*
G37*
G36*
X114779379Y-82000000D02*
G01*
X114866267Y-82017283D01*
X115004942Y-82074724D01*
X115129747Y-82158116D01*
X115235884Y-82264253D01*
X115319276Y-82389058D01*
X115376717Y-82527733D01*
X115406000Y-82674950D01*
X115406000Y-82825050D01*
X115376717Y-82972267D01*
X115319276Y-83110942D01*
X115235884Y-83235747D01*
X115129747Y-83341884D01*
X115004942Y-83425276D01*
X114866267Y-83482717D01*
X114817195Y-83492478D01*
X114719052Y-83512000D01*
X114568948Y-83512000D01*
X114470805Y-83492478D01*
X114421733Y-83482717D01*
X114283058Y-83425276D01*
X114158253Y-83341884D01*
X114052116Y-83235747D01*
X113968724Y-83110942D01*
X113911283Y-82972267D01*
X113882000Y-82825050D01*
X113882000Y-82674950D01*
X113911283Y-82527733D01*
X113968724Y-82389058D01*
X114052116Y-82264253D01*
X114158253Y-82158116D01*
X114283058Y-82074724D01*
X114421733Y-82017283D01*
X114508621Y-82000000D01*
X114568948Y-81988000D01*
X114719052Y-81988000D01*
X114779379Y-82000000D01*
X114779379Y-82000000D01*
G37*
G36*
X149353543Y-80900000D02*
G01*
X149410267Y-80911283D01*
X149548942Y-80968724D01*
X149673747Y-81052116D01*
X149779884Y-81158253D01*
X149863276Y-81283058D01*
X149920717Y-81421733D01*
X149920717Y-81421734D01*
X149950000Y-81568948D01*
X149950000Y-81719052D01*
X149933778Y-81800604D01*
X149920717Y-81866267D01*
X149863276Y-82004942D01*
X149779884Y-82129747D01*
X149673747Y-82235884D01*
X149548942Y-82319276D01*
X149410267Y-82376717D01*
X149361195Y-82386478D01*
X149263052Y-82406000D01*
X149112948Y-82406000D01*
X149014805Y-82386478D01*
X148965733Y-82376717D01*
X148827058Y-82319276D01*
X148702253Y-82235884D01*
X148596116Y-82129747D01*
X148512724Y-82004942D01*
X148455283Y-81866267D01*
X148442222Y-81800604D01*
X148426000Y-81719052D01*
X148426000Y-81568948D01*
X148455283Y-81421734D01*
X148455283Y-81421733D01*
X148512724Y-81283058D01*
X148596116Y-81158253D01*
X148702253Y-81052116D01*
X148827058Y-80968724D01*
X148965733Y-80911283D01*
X149022457Y-80900000D01*
X149112948Y-80882000D01*
X149263052Y-80882000D01*
X149353543Y-80900000D01*
X149353543Y-80900000D01*
G37*
G36*
X123110894Y-80911283D02*
G01*
X123160429Y-80921136D01*
X123210476Y-80941866D01*
X123260524Y-80962597D01*
X123350602Y-81022785D01*
X123427215Y-81099398D01*
X123487403Y-81189476D01*
X123487403Y-81189477D01*
X123526167Y-81283059D01*
X123528864Y-81289572D01*
X123550000Y-81395828D01*
X123550000Y-81504172D01*
X123528864Y-81610428D01*
X123487403Y-81710524D01*
X123427215Y-81800602D01*
X123350602Y-81877215D01*
X123260524Y-81937403D01*
X123210476Y-81958134D01*
X123160429Y-81978864D01*
X123125009Y-81985909D01*
X123054172Y-82000000D01*
X122945828Y-82000000D01*
X122874991Y-81985909D01*
X122839571Y-81978864D01*
X122789524Y-81958134D01*
X122739476Y-81937403D01*
X122649398Y-81877215D01*
X122572785Y-81800602D01*
X122512597Y-81710524D01*
X122471136Y-81610428D01*
X122450000Y-81504172D01*
X122450000Y-81395828D01*
X122471136Y-81289572D01*
X122473834Y-81283059D01*
X122512597Y-81189477D01*
X122512597Y-81189476D01*
X122572785Y-81099398D01*
X122649398Y-81022785D01*
X122739476Y-80962597D01*
X122789524Y-80941866D01*
X122839571Y-80921136D01*
X122889106Y-80911283D01*
X122945828Y-80900000D01*
X123054172Y-80900000D01*
X123110894Y-80911283D01*
X123110894Y-80911283D01*
G37*
G36*
X114779379Y-80000000D02*
G01*
X114866267Y-80017283D01*
X115004942Y-80074724D01*
X115129747Y-80158116D01*
X115235884Y-80264253D01*
X115319276Y-80389058D01*
X115376717Y-80527733D01*
X115406000Y-80674950D01*
X115406000Y-80825050D01*
X115376717Y-80972267D01*
X115319276Y-81110942D01*
X115235884Y-81235747D01*
X115129747Y-81341884D01*
X115004942Y-81425276D01*
X114866267Y-81482717D01*
X114817195Y-81492478D01*
X114719052Y-81512000D01*
X114568948Y-81512000D01*
X114470805Y-81492478D01*
X114421733Y-81482717D01*
X114283058Y-81425276D01*
X114158253Y-81341884D01*
X114052116Y-81235747D01*
X113968724Y-81110942D01*
X113911283Y-80972267D01*
X113882000Y-80825050D01*
X113882000Y-80674950D01*
X113911283Y-80527733D01*
X113968724Y-80389058D01*
X114052116Y-80264253D01*
X114158253Y-80158116D01*
X114283058Y-80074724D01*
X114421733Y-80017283D01*
X114508621Y-80000000D01*
X114568948Y-79988000D01*
X114719052Y-79988000D01*
X114779379Y-80000000D01*
X114779379Y-80000000D01*
G37*
G36*
X128673195Y-79007522D02*
G01*
X128722267Y-79017283D01*
X128860942Y-79074724D01*
X128985747Y-79158116D01*
X129091884Y-79264253D01*
X129175276Y-79389058D01*
X129232717Y-79527733D01*
X129238717Y-79557897D01*
X129261106Y-79670453D01*
X129262000Y-79674950D01*
X129262000Y-79825050D01*
X129232717Y-79972267D01*
X129175276Y-80110942D01*
X129091884Y-80235747D01*
X128985747Y-80341884D01*
X128860942Y-80425276D01*
X128722267Y-80482717D01*
X128673195Y-80492478D01*
X128575052Y-80512000D01*
X128424948Y-80512000D01*
X128326805Y-80492478D01*
X128277733Y-80482717D01*
X128139058Y-80425276D01*
X128014253Y-80341884D01*
X127908116Y-80235747D01*
X127824724Y-80110942D01*
X127767283Y-79972267D01*
X127738000Y-79825050D01*
X127738000Y-79674950D01*
X127738895Y-79670453D01*
X127761283Y-79557897D01*
X127767283Y-79527733D01*
X127824724Y-79389058D01*
X127908116Y-79264253D01*
X128014253Y-79158116D01*
X128139058Y-79074724D01*
X128277733Y-79017283D01*
X128326805Y-79007522D01*
X128424948Y-78988000D01*
X128575052Y-78988000D01*
X128673195Y-79007522D01*
X128673195Y-79007522D01*
G37*
G36*
X126673195Y-79007522D02*
G01*
X126722267Y-79017283D01*
X126860942Y-79074724D01*
X126985747Y-79158116D01*
X127091884Y-79264253D01*
X127175276Y-79389058D01*
X127232717Y-79527733D01*
X127238717Y-79557897D01*
X127261106Y-79670453D01*
X127262000Y-79674950D01*
X127262000Y-79825050D01*
X127232717Y-79972267D01*
X127175276Y-80110942D01*
X127091884Y-80235747D01*
X126985747Y-80341884D01*
X126860942Y-80425276D01*
X126722267Y-80482717D01*
X126673195Y-80492478D01*
X126575052Y-80512000D01*
X126424948Y-80512000D01*
X126326805Y-80492478D01*
X126277733Y-80482717D01*
X126139058Y-80425276D01*
X126014253Y-80341884D01*
X125908116Y-80235747D01*
X125824724Y-80110942D01*
X125767283Y-79972267D01*
X125738000Y-79825050D01*
X125738000Y-79674950D01*
X125738895Y-79670453D01*
X125761283Y-79557897D01*
X125767283Y-79527733D01*
X125824724Y-79389058D01*
X125908116Y-79264253D01*
X126014253Y-79158116D01*
X126139058Y-79074724D01*
X126277733Y-79017283D01*
X126326805Y-79007522D01*
X126424948Y-78988000D01*
X126575052Y-78988000D01*
X126673195Y-79007522D01*
X126673195Y-79007522D01*
G37*
G36*
X124673195Y-79007522D02*
G01*
X124722267Y-79017283D01*
X124860942Y-79074724D01*
X124985747Y-79158116D01*
X125091884Y-79264253D01*
X125175276Y-79389058D01*
X125232717Y-79527733D01*
X125238717Y-79557897D01*
X125261106Y-79670453D01*
X125262000Y-79674950D01*
X125262000Y-79825050D01*
X125232717Y-79972267D01*
X125175276Y-80110942D01*
X125091884Y-80235747D01*
X124985747Y-80341884D01*
X124860942Y-80425276D01*
X124722267Y-80482717D01*
X124673195Y-80492478D01*
X124575052Y-80512000D01*
X124424948Y-80512000D01*
X124326805Y-80492478D01*
X124277733Y-80482717D01*
X124139058Y-80425276D01*
X124014253Y-80341884D01*
X123908116Y-80235747D01*
X123824724Y-80110942D01*
X123767283Y-79972267D01*
X123738000Y-79825050D01*
X123738000Y-79674950D01*
X123738895Y-79670453D01*
X123761283Y-79557897D01*
X123767283Y-79527733D01*
X123824724Y-79389058D01*
X123908116Y-79264253D01*
X124014253Y-79158116D01*
X124139058Y-79074724D01*
X124277733Y-79017283D01*
X124326805Y-79007522D01*
X124424948Y-78988000D01*
X124575052Y-78988000D01*
X124673195Y-79007522D01*
X124673195Y-79007522D01*
G37*
G36*
X170068793Y-76374937D02*
G01*
X170423670Y-76521932D01*
X170743052Y-76735336D01*
X171014664Y-77006948D01*
X171228068Y-77326330D01*
X171375063Y-77681207D01*
X171450000Y-78057940D01*
X171450000Y-78442060D01*
X171375063Y-78818793D01*
X171228068Y-79173670D01*
X171014664Y-79493052D01*
X170743052Y-79764664D01*
X170423670Y-79978068D01*
X170068793Y-80125063D01*
X169692060Y-80200000D01*
X169307940Y-80200000D01*
X168931207Y-80125063D01*
X168576330Y-79978068D01*
X168256948Y-79764664D01*
X167985336Y-79493052D01*
X167771932Y-79173670D01*
X167624937Y-78818793D01*
X167550000Y-78442060D01*
X167550000Y-78057940D01*
X167624937Y-77681207D01*
X167771932Y-77326330D01*
X167985336Y-77006948D01*
X168256948Y-76735336D01*
X168576330Y-76521932D01*
X168931207Y-76374937D01*
X169307940Y-76300000D01*
X169692060Y-76300000D01*
X170068793Y-76374937D01*
X170068793Y-76374937D01*
G37*
G36*
X175068793Y-76374937D02*
G01*
X175423670Y-76521932D01*
X175743052Y-76735336D01*
X176014664Y-77006948D01*
X176228068Y-77326330D01*
X176375063Y-77681207D01*
X176450000Y-78057940D01*
X176450000Y-78442060D01*
X176375063Y-78818793D01*
X176228068Y-79173670D01*
X176014664Y-79493052D01*
X175743052Y-79764664D01*
X175423670Y-79978068D01*
X175068793Y-80125063D01*
X174692060Y-80200000D01*
X174307940Y-80200000D01*
X173931207Y-80125063D01*
X173576330Y-79978068D01*
X173256948Y-79764664D01*
X172985336Y-79493052D01*
X172771932Y-79173670D01*
X172624937Y-78818793D01*
X172550000Y-78442060D01*
X172550000Y-78057940D01*
X172624937Y-77681207D01*
X172771932Y-77326330D01*
X172985336Y-77006948D01*
X173256948Y-76735336D01*
X173576330Y-76521932D01*
X173931207Y-76374937D01*
X174307940Y-76300000D01*
X174692060Y-76300000D01*
X175068793Y-76374937D01*
X175068793Y-76374937D01*
G37*
G36*
X114817195Y-78007522D02*
G01*
X114866267Y-78017283D01*
X115004942Y-78074724D01*
X115129747Y-78158116D01*
X115235884Y-78264253D01*
X115319276Y-78389058D01*
X115376717Y-78527733D01*
X115406000Y-78674950D01*
X115406000Y-78825050D01*
X115376717Y-78972267D01*
X115319276Y-79110942D01*
X115235884Y-79235747D01*
X115129747Y-79341884D01*
X115004942Y-79425276D01*
X114866267Y-79482717D01*
X114817195Y-79492478D01*
X114719052Y-79512000D01*
X114568948Y-79512000D01*
X114470805Y-79492478D01*
X114421733Y-79482717D01*
X114283058Y-79425276D01*
X114158253Y-79341884D01*
X114052116Y-79235747D01*
X113968724Y-79110942D01*
X113911283Y-78972267D01*
X113882000Y-78825050D01*
X113882000Y-78674950D01*
X113911283Y-78527733D01*
X113968724Y-78389058D01*
X114052116Y-78264253D01*
X114158253Y-78158116D01*
X114283058Y-78074724D01*
X114421733Y-78017283D01*
X114470805Y-78007522D01*
X114568948Y-77988000D01*
X114719052Y-77988000D01*
X114817195Y-78007522D01*
X114817195Y-78007522D01*
G37*
G36*
X195933404Y-66922974D02*
G01*
X196515767Y-67164196D01*
X196557787Y-67192273D01*
X197039881Y-67514398D01*
X197485602Y-67960119D01*
X197606902Y-68141658D01*
X197835804Y-68484233D01*
X198077026Y-69066596D01*
X198200000Y-69684826D01*
X198200000Y-70315174D01*
X198077026Y-70933404D01*
X197835804Y-71515767D01*
X197719599Y-71689679D01*
X197485602Y-72039881D01*
X197039881Y-72485602D01*
X196786381Y-72654985D01*
X196515767Y-72835804D01*
X195933404Y-73077026D01*
X195315174Y-73200000D01*
X194684826Y-73200000D01*
X194066596Y-73077026D01*
X193484233Y-72835804D01*
X193213619Y-72654985D01*
X192960119Y-72485602D01*
X192514398Y-72039881D01*
X192280401Y-71689679D01*
X192164196Y-71515767D01*
X191922974Y-70933404D01*
X191800000Y-70315174D01*
X191800000Y-69684826D01*
X191922974Y-69066596D01*
X192164196Y-68484233D01*
X192393098Y-68141658D01*
X192514398Y-67960119D01*
X192960119Y-67514398D01*
X193442213Y-67192273D01*
X193484233Y-67164196D01*
X194066596Y-66922974D01*
X194684826Y-66800000D01*
X195315174Y-66800000D01*
X195933404Y-66922974D01*
X195933404Y-66922974D01*
G37*
G36*
X116933404Y-66922974D02*
G01*
X117515767Y-67164196D01*
X117557787Y-67192273D01*
X118039881Y-67514398D01*
X118485602Y-67960119D01*
X118606902Y-68141658D01*
X118835804Y-68484233D01*
X119077026Y-69066596D01*
X119200000Y-69684826D01*
X119200000Y-70315174D01*
X119077026Y-70933404D01*
X118835804Y-71515767D01*
X118719599Y-71689679D01*
X118485602Y-72039881D01*
X118039881Y-72485602D01*
X117786381Y-72654985D01*
X117515767Y-72835804D01*
X116933404Y-73077026D01*
X116315174Y-73200000D01*
X115684826Y-73200000D01*
X115066596Y-73077026D01*
X114484233Y-72835804D01*
X114213619Y-72654985D01*
X113960119Y-72485602D01*
X113514398Y-72039881D01*
X113280401Y-71689679D01*
X113164196Y-71515767D01*
X112922974Y-70933404D01*
X112800000Y-70315174D01*
X112800000Y-69684826D01*
X112922974Y-69066596D01*
X113164196Y-68484233D01*
X113393098Y-68141658D01*
X113514398Y-67960119D01*
X113960119Y-67514398D01*
X114442213Y-67192273D01*
X114484233Y-67164196D01*
X115066596Y-66922974D01*
X115684826Y-66800000D01*
X116315174Y-66800000D01*
X116933404Y-66922974D01*
X116933404Y-66922974D01*
G37*
G36*
X166820857Y-67192272D02*
G01*
X167021043Y-67275192D01*
X167021045Y-67275193D01*
X167111738Y-67335792D01*
X167201208Y-67395574D01*
X167354426Y-67548792D01*
X167474808Y-67728957D01*
X167557728Y-67929143D01*
X167600000Y-68141658D01*
X167600000Y-68358342D01*
X167557728Y-68570857D01*
X167474808Y-68771043D01*
X167474807Y-68771045D01*
X167354425Y-68951209D01*
X167201209Y-69104425D01*
X167021045Y-69224807D01*
X167021044Y-69224808D01*
X167021043Y-69224808D01*
X166820857Y-69307728D01*
X166608342Y-69350000D01*
X166391658Y-69350000D01*
X166179143Y-69307728D01*
X165978957Y-69224808D01*
X165978956Y-69224808D01*
X165978955Y-69224807D01*
X165798791Y-69104425D01*
X165645575Y-68951209D01*
X165525193Y-68771045D01*
X165525192Y-68771043D01*
X165442272Y-68570857D01*
X165400000Y-68358342D01*
X165400000Y-68141658D01*
X165442272Y-67929143D01*
X165525192Y-67728957D01*
X165645574Y-67548792D01*
X165798792Y-67395574D01*
X165888262Y-67335792D01*
X165978955Y-67275193D01*
X165978957Y-67275192D01*
X166179143Y-67192272D01*
X166391658Y-67150000D01*
X166608342Y-67150000D01*
X166820857Y-67192272D01*
X166820857Y-67192272D01*
G37*
G36*
X177820857Y-67192272D02*
G01*
X178021043Y-67275192D01*
X178021045Y-67275193D01*
X178111738Y-67335792D01*
X178201208Y-67395574D01*
X178354426Y-67548792D01*
X178474808Y-67728957D01*
X178557728Y-67929143D01*
X178600000Y-68141658D01*
X178600000Y-68358342D01*
X178557728Y-68570857D01*
X178474808Y-68771043D01*
X178474807Y-68771045D01*
X178354425Y-68951209D01*
X178201209Y-69104425D01*
X178021045Y-69224807D01*
X178021044Y-69224808D01*
X178021043Y-69224808D01*
X177820857Y-69307728D01*
X177608342Y-69350000D01*
X177391658Y-69350000D01*
X177179143Y-69307728D01*
X176978957Y-69224808D01*
X176978956Y-69224808D01*
X176978955Y-69224807D01*
X176798791Y-69104425D01*
X176645575Y-68951209D01*
X176525193Y-68771045D01*
X176525192Y-68771043D01*
X176442272Y-68570857D01*
X176400000Y-68358342D01*
X176400000Y-68141658D01*
X176442272Y-67929143D01*
X176525192Y-67728957D01*
X176645574Y-67548792D01*
X176798792Y-67395574D01*
X176888262Y-67335792D01*
X176978955Y-67275193D01*
X176978957Y-67275192D01*
X177179143Y-67192272D01*
X177391658Y-67150000D01*
X177608342Y-67150000D01*
X177820857Y-67192272D01*
X177820857Y-67192272D01*
G37*
M02*
